%TF.GenerationSoftware,KiCad,Pcbnew,7.0.9*%
%TF.CreationDate,2023-12-25T02:24:27+05:30*%
%TF.ProjectId,HiveKB,48697665-4b42-42e6-9b69-6361645f7063,rev?*%
%TF.SameCoordinates,Original*%
%TF.FileFunction,Copper,L2,Bot*%
%TF.FilePolarity,Positive*%
%FSLAX46Y46*%
G04 Gerber Fmt 4.6, Leading zero omitted, Abs format (unit mm)*
G04 Created by KiCad (PCBNEW 7.0.9) date 2023-12-25 02:24:27*
%MOMM*%
%LPD*%
G01*
G04 APERTURE LIST*
%TA.AperFunction,ComponentPad*%
%ADD10C,4.700000*%
%TD*%
%TA.AperFunction,ComponentPad*%
%ADD11C,1.397000*%
%TD*%
%TA.AperFunction,SMDPad,CuDef*%
%ADD12R,2.600000X2.600000*%
%TD*%
%TA.AperFunction,SMDPad,CuDef*%
%ADD13R,3.800000X2.000000*%
%TD*%
%TA.AperFunction,ViaPad*%
%ADD14C,0.800000*%
%TD*%
%TA.AperFunction,Conductor*%
%ADD15C,0.250000*%
%TD*%
%ADD16C,0.350000*%
G04 APERTURE END LIST*
D10*
%TO.P,,1*%
%TO.N,N/C*%
X256831976Y-122578830D03*
%TD*%
%TO.P,,1*%
%TO.N,N/C*%
X342832104Y-85339710D03*
%TD*%
%TO.P,,1*%
%TO.N,N/C*%
X90031384Y-190850490D03*
%TD*%
%TO.P,,1*%
%TO.N,N/C*%
X300167978Y-85339710D03*
%TD*%
%TO.P,,1*%
%TO.N,N/C*%
X353582120Y-190850550D03*
%TD*%
%TO.P,,1*%
%TO.N,N/C*%
X186906368Y-85646263D03*
%TD*%
%TO.P,,1*%
%TO.N,N/C*%
X256831976Y-172230990D03*
%TD*%
%TO.P,,1*%
%TO.N,N/C*%
X90031384Y-153611370D03*
%TD*%
%TO.P,,1*%
%TO.N,N/C*%
X257167914Y-85339710D03*
%TD*%
%TO.P,,1*%
%TO.N,N/C*%
X143906369Y-85646266D03*
%TD*%
%TO.P,,1*%
%TO.N,N/C*%
X353582120Y-153611430D03*
%TD*%
D11*
%TO.P,U1,15,NFC+*%
%TO.N,unconnected-(U1-NFC+-Pad15)*%
X92407664Y-173431855D03*
%TO.P,U1,16,NFC-*%
%TO.N,unconnected-(U1-NFC--Pad16)*%
X92407664Y-170891855D03*
%TO.P,U1,17,PA31_SWDIO*%
%TO.N,Net-(U1-PA31_SWDIO)*%
X94947664Y-173431855D03*
%TO.P,U1,18,PA30_SWCLK*%
%TO.N,Net-(U1-PA30_SWCLK)*%
X94947664Y-170891855D03*
%TO.P,U1,19,RESET*%
%TO.N,unconnected-(U1-RESET-Pad19)*%
X100662664Y-176606855D03*
%TO.P,U1,20,GND*%
%TO.N,unconnected-(U1-GND-Pad20)*%
X98757664Y-176606855D03*
%TO.P,U1,21,BAT-*%
%TO.N,Net-(SW2-B)*%
X110187664Y-168351855D03*
%TO.P,U1,22,BAT+*%
%TO.N,Net-(BT2-+)*%
X110187664Y-166446855D03*
%TD*%
%TO.P,U2,15,NFC+*%
%TO.N,unconnected-(U2-NFC+-Pad15)*%
X351174388Y-170996925D03*
%TO.P,U2,16,NFC-*%
%TO.N,unconnected-(U2-NFC--Pad16)*%
X351174388Y-173536925D03*
%TO.P,U2,17,PA31_SWDIO*%
%TO.N,Net-(U2-PA31_SWDIO)*%
X348634388Y-170996925D03*
%TO.P,U2,18,PA30_SWCLK*%
%TO.N,Net-(U2-PA30_SWCLK)*%
X348634388Y-173536925D03*
%TO.P,U2,19,RESET*%
%TO.N,unconnected-(U2-RESET-Pad19)*%
X342919388Y-167821925D03*
%TO.P,U2,20,GND*%
%TO.N,unconnected-(U2-GND-Pad20)*%
X344824388Y-167821925D03*
%TO.P,U2,21,BAT-*%
%TO.N,Net-(SW4-B)*%
X333394388Y-176076925D03*
%TO.P,U2,22,BAT+*%
%TO.N,Net-(BT4-+)*%
X333394388Y-177981925D03*
%TD*%
D10*
%TO.P,,1*%
%TO.N,N/C*%
X100906370Y-85646263D03*
%TD*%
%TO.P,,1*%
%TO.N,N/C*%
X342832104Y-122578830D03*
%TD*%
%TO.P,,1*%
%TO.N,N/C*%
X186781528Y-172230930D03*
%TD*%
%TO.P,,1*%
%TO.N,N/C*%
X143906367Y-123273338D03*
%TD*%
%TO.P,,1*%
%TO.N,N/C*%
X186906367Y-123273339D03*
%TD*%
%TO.P,,1*%
%TO.N,N/C*%
X300167978Y-122578830D03*
%TD*%
%TO.P,,1*%
%TO.N,N/C*%
X100906369Y-123273339D03*
%TD*%
D12*
%TO.P,S23,1*%
%TO.N,COL5_L*%
X195206367Y-131291777D03*
%TO.P,S23,2*%
%TO.N,Net-(D23-A)*%
X183606367Y-129091777D03*
%TD*%
%TO.P,S54,1*%
%TO.N,COL6_R*%
X351256608Y-131291814D03*
%TO.P,S54,2*%
%TO.N,Net-(D54-A)*%
X339656608Y-129091814D03*
%TD*%
D13*
%TO.P,BT4,1,+*%
%TO.N,Net-(BT4-+)*%
X327203612Y-173782560D03*
%TD*%
D12*
%TO.P,S29,1*%
%TO.N,COL5_L*%
X216706370Y-168530875D03*
%TO.P,S29,2*%
%TO.N,Net-(D29-A)*%
X205106370Y-166330875D03*
%TD*%
%TO.P,S37,1*%
%TO.N,COL1_R*%
X243756608Y-94052718D03*
%TO.P,S37,2*%
%TO.N,Net-(D37-A)*%
X232156608Y-91852718D03*
%TD*%
%TO.P,S39,1*%
%TO.N,COL3_R*%
X286756608Y-94052718D03*
%TO.P,S39,2*%
%TO.N,Net-(D39-A)*%
X275156608Y-91852718D03*
%TD*%
%TO.P,S36,1*%
%TO.N,COL6_R*%
X362006608Y-75433170D03*
%TO.P,S36,2*%
%TO.N,Net-(D36-A)*%
X350406608Y-73233170D03*
%TD*%
%TO.P,S38,1*%
%TO.N,COL2_R*%
X265256608Y-94052718D03*
%TO.P,S38,2*%
%TO.N,Net-(D38-A)*%
X253656608Y-91852718D03*
%TD*%
%TO.P,S34,1*%
%TO.N,COL4_R*%
X319006608Y-75433170D03*
%TO.P,S34,2*%
%TO.N,Net-(D34-A)*%
X307406608Y-73233170D03*
%TD*%
%TO.P,S50,1*%
%TO.N,COL2_R*%
X265256608Y-131291814D03*
%TO.P,S50,2*%
%TO.N,Net-(D50-A)*%
X253656608Y-129091814D03*
%TD*%
%TO.P,S47,1*%
%TO.N,COL5_R*%
X340506608Y-112672266D03*
%TO.P,S47,2*%
%TO.N,Net-(D47-A)*%
X328906608Y-110472266D03*
%TD*%
%TO.P,S19,1*%
%TO.N,COL1_L*%
X109206369Y-131291777D03*
%TO.P,S19,2*%
%TO.N,Net-(D19-A)*%
X97606369Y-129091777D03*
%TD*%
%TO.P,S60,1*%
%TO.N,COL6_R*%
X319006608Y-149911362D03*
%TO.P,S60,2*%
%TO.N,Net-(D60-A)*%
X307406608Y-147711362D03*
%TD*%
%TO.P,S6,1*%
%TO.N,COL6_L*%
X205706370Y-75433172D03*
%TO.P,S6,2*%
%TO.N,Net-(D6-A)*%
X194106370Y-73233172D03*
%TD*%
%TO.P,S4,1*%
%TO.N,COL4_L*%
X162956370Y-75433172D03*
%TO.P,S4,2*%
%TO.N,Net-(D4-A)*%
X151356370Y-73233172D03*
%TD*%
%TO.P,S17,1*%
%TO.N,COL5_L*%
X184456371Y-112672174D03*
%TO.P,S17,2*%
%TO.N,Net-(D17-A)*%
X172856371Y-110472174D03*
%TD*%
%TO.P,S24,1*%
%TO.N,COL6_L*%
X216706371Y-131291776D03*
%TO.P,S24,2*%
%TO.N,Net-(D24-A)*%
X205106371Y-129091776D03*
%TD*%
%TO.P,S31,1*%
%TO.N,COL1_R*%
X254506608Y-75433170D03*
%TO.P,S31,2*%
%TO.N,Net-(D31-A)*%
X242906608Y-73233170D03*
%TD*%
%TO.P,S53,1*%
%TO.N,COL5_R*%
X329756608Y-131291814D03*
%TO.P,S53,2*%
%TO.N,Net-(D53-A)*%
X318156608Y-129091814D03*
%TD*%
%TO.P,S46,1*%
%TO.N,COL4_R*%
X319006608Y-112672266D03*
%TO.P,S46,2*%
%TO.N,Net-(D46-A)*%
X307406608Y-110472266D03*
%TD*%
%TO.P,S35,1*%
%TO.N,COL5_R*%
X340381608Y-75433170D03*
%TO.P,S35,2*%
%TO.N,Net-(D35-A)*%
X328781608Y-73233170D03*
%TD*%
%TO.P,S14,1*%
%TO.N,COL2_L*%
X119956375Y-112672174D03*
%TO.P,S14,2*%
%TO.N,Net-(D14-A)*%
X108356375Y-110472174D03*
%TD*%
%TO.P,S16,1*%
%TO.N,COL4_L*%
X162706375Y-112672174D03*
%TO.P,S16,2*%
%TO.N,Net-(D16-A)*%
X151106375Y-110472174D03*
%TD*%
%TO.P,S33,1*%
%TO.N,COL3_R*%
X297506608Y-75433170D03*
%TO.P,S33,2*%
%TO.N,Net-(D33-A)*%
X285906608Y-73233170D03*
%TD*%
%TO.P,S1,1*%
%TO.N,COL1_L*%
X98206372Y-75433175D03*
%TO.P,S1,2*%
%TO.N,Net-(D1-A)*%
X86606372Y-73233175D03*
%TD*%
%TO.P,S22,1*%
%TO.N,COL4_L*%
X173706369Y-131291776D03*
%TO.P,S22,2*%
%TO.N,Net-(D22-A)*%
X162106369Y-129091776D03*
%TD*%
%TO.P,S11,1*%
%TO.N,COL5_L*%
X195206372Y-94052672D03*
%TO.P,S11,2*%
%TO.N,Net-(D11-A)*%
X183606372Y-91852672D03*
%TD*%
%TO.P,S13,1*%
%TO.N,COL1_L*%
X98456374Y-112672172D03*
%TO.P,S13,2*%
%TO.N,Net-(D13-A)*%
X86856374Y-110472172D03*
%TD*%
%TO.P,S25,1*%
%TO.N,COL1_L*%
X141456369Y-149911279D03*
%TO.P,S25,2*%
%TO.N,Net-(D25-A)*%
X129856369Y-147711279D03*
%TD*%
%TO.P,S43,1*%
%TO.N,COL1_R*%
X254506608Y-112672266D03*
%TO.P,S43,2*%
%TO.N,Net-(D43-A)*%
X242906608Y-110472266D03*
%TD*%
%TO.P,S3,1*%
%TO.N,COL3_L*%
X141206373Y-75433174D03*
%TO.P,S3,2*%
%TO.N,Net-(D3-A)*%
X129606373Y-73233174D03*
%TD*%
%TO.P,S51,1*%
%TO.N,COL3_R*%
X286631608Y-131291814D03*
%TO.P,S51,2*%
%TO.N,Net-(D51-A)*%
X275031608Y-129091814D03*
%TD*%
%TO.P,S9,1*%
%TO.N,COL3_L*%
X152206369Y-94052676D03*
%TO.P,S9,2*%
%TO.N,Net-(D9-A)*%
X140606369Y-91852676D03*
%TD*%
%TO.P,S41,1*%
%TO.N,COL5_R*%
X329756608Y-94052718D03*
%TO.P,S41,2*%
%TO.N,Net-(D41-A)*%
X318156608Y-91852718D03*
%TD*%
%TO.P,S52,1*%
%TO.N,COL4_R*%
X308006608Y-131291814D03*
%TO.P,S52,2*%
%TO.N,Net-(D52-A)*%
X296406608Y-129091814D03*
%TD*%
%TO.P,S20,1*%
%TO.N,COL2_L*%
X130706367Y-131291772D03*
%TO.P,S20,2*%
%TO.N,Net-(D20-A)*%
X119106367Y-129091772D03*
%TD*%
%TO.P,S26,1*%
%TO.N,COL2_L*%
X162956369Y-149911278D03*
%TO.P,S26,2*%
%TO.N,Net-(D26-A)*%
X151356369Y-147711278D03*
%TD*%
%TO.P,S5,1*%
%TO.N,COL5_L*%
X184456370Y-75433175D03*
%TO.P,S5,2*%
%TO.N,Net-(D5-A)*%
X172856370Y-73233175D03*
%TD*%
%TO.P,S12,1*%
%TO.N,COL6_L*%
X216706368Y-94052675D03*
%TO.P,S12,2*%
%TO.N,Net-(D12-A)*%
X205106368Y-91852675D03*
%TD*%
%TO.P,S45,1*%
%TO.N,COL3_R*%
X297506608Y-112672266D03*
%TO.P,S45,2*%
%TO.N,Net-(D45-A)*%
X285906608Y-110472266D03*
%TD*%
%TO.P,S40,1*%
%TO.N,COL4_R*%
X308256608Y-94052718D03*
%TO.P,S40,2*%
%TO.N,Net-(D40-A)*%
X296656608Y-91852718D03*
%TD*%
%TO.P,S57,1*%
%TO.N,COL3_R*%
X254506608Y-149911362D03*
%TO.P,S57,2*%
%TO.N,Net-(D57-A)*%
X242906608Y-147711362D03*
%TD*%
D13*
%TO.P,BT2,1,+*%
%TO.N,Net-(BT2-+)*%
X116234548Y-173782560D03*
%TD*%
D12*
%TO.P,S59,1*%
%TO.N,COL5_R*%
X297506608Y-149911362D03*
%TO.P,S59,2*%
%TO.N,Net-(D59-A)*%
X285906608Y-147711362D03*
%TD*%
%TO.P,S56,1*%
%TO.N,COL2_R*%
X243506608Y-168530910D03*
%TO.P,S56,2*%
%TO.N,Net-(D56-A)*%
X231906608Y-166330910D03*
%TD*%
D13*
%TO.P,BT1,1,+*%
%TO.N,Net-(BT1-+)*%
X116234548Y-170679300D03*
%TD*%
D12*
%TO.P,S42,1*%
%TO.N,COL6_R*%
X351256608Y-94052718D03*
%TO.P,S42,2*%
%TO.N,Net-(D42-A)*%
X339656608Y-91852718D03*
%TD*%
%TO.P,S18,1*%
%TO.N,COL6_L*%
X205956371Y-112672170D03*
%TO.P,S18,2*%
%TO.N,Net-(D18-A)*%
X194356371Y-110472170D03*
%TD*%
%TO.P,S48,1*%
%TO.N,COL6_R*%
X362006608Y-112672266D03*
%TO.P,S48,2*%
%TO.N,Net-(D48-A)*%
X350406608Y-110472266D03*
%TD*%
%TO.P,S28,1*%
%TO.N,COL4_L*%
X205956369Y-149911273D03*
%TO.P,S28,2*%
%TO.N,Net-(D28-A)*%
X194356369Y-147711273D03*
%TD*%
%TO.P,S15,1*%
%TO.N,COL3_L*%
X141456370Y-112672175D03*
%TO.P,S15,2*%
%TO.N,Net-(D15-A)*%
X129856370Y-110472175D03*
%TD*%
%TO.P,S30,1*%
%TO.N,COL6_L*%
X205956368Y-187150373D03*
%TO.P,S30,2*%
%TO.N,Net-(D30-A)*%
X194356368Y-184950373D03*
%TD*%
D13*
%TO.P,BT3,1,+*%
%TO.N,Net-(BT3-+)*%
X327203612Y-170679300D03*
%TD*%
D12*
%TO.P,S44,1*%
%TO.N,COL2_R*%
X276006608Y-112672266D03*
%TO.P,S44,2*%
%TO.N,Net-(D44-A)*%
X264406608Y-110472266D03*
%TD*%
%TO.P,S21,1*%
%TO.N,COL3_L*%
X152206369Y-131291778D03*
%TO.P,S21,2*%
%TO.N,Net-(D21-A)*%
X140606369Y-129091778D03*
%TD*%
%TO.P,S7,1*%
%TO.N,COL1_L*%
X109206371Y-94052675D03*
%TO.P,S7,2*%
%TO.N,Net-(D7-A)*%
X97606371Y-91852675D03*
%TD*%
%TO.P,S10,1*%
%TO.N,COL4_L*%
X173706372Y-94052675D03*
%TO.P,S10,2*%
%TO.N,Net-(D10-A)*%
X162106372Y-91852675D03*
%TD*%
%TO.P,S32,1*%
%TO.N,COL2_R*%
X276006608Y-75433170D03*
%TO.P,S32,2*%
%TO.N,Net-(D32-A)*%
X264406608Y-73233170D03*
%TD*%
%TO.P,S27,1*%
%TO.N,COL3_L*%
X184206369Y-149911279D03*
%TO.P,S27,2*%
%TO.N,Net-(D27-A)*%
X172606369Y-147711279D03*
%TD*%
%TO.P,S2,1*%
%TO.N,COL2_L*%
X119706372Y-75433172D03*
%TO.P,S2,2*%
%TO.N,Net-(D2-A)*%
X108106372Y-73233172D03*
%TD*%
%TO.P,S55,1*%
%TO.N,COL1_R*%
X254381608Y-187150458D03*
%TO.P,S55,2*%
%TO.N,Net-(D55-A)*%
X242781608Y-184950458D03*
%TD*%
%TO.P,S58,1*%
%TO.N,COL4_R*%
X276006608Y-149911362D03*
%TO.P,S58,2*%
%TO.N,Net-(D58-A)*%
X264406608Y-147711362D03*
%TD*%
%TO.P,S49,1*%
%TO.N,COL1_R*%
X243756608Y-131291814D03*
%TO.P,S49,2*%
%TO.N,Net-(D49-A)*%
X232156608Y-129091814D03*
%TD*%
%TO.P,S8,1*%
%TO.N,COL2_L*%
X130456371Y-94052670D03*
%TO.P,S8,2*%
%TO.N,Net-(D8-A)*%
X118856371Y-91852670D03*
%TD*%
D14*
%TO.N,Net-(D1-A)*%
X86672004Y-79133130D03*
%TO.N,Net-(D3-A)*%
X129672068Y-79133130D03*
%TO.N,Net-(D5-A)*%
X173344008Y-79133130D03*
%TO.N,Net-(D11-A)*%
X184094024Y-97752690D03*
%TO.N,Net-(D13-A)*%
X87343880Y-116372250D03*
%TO.N,Net-(D15-A)*%
X130343944Y-116372250D03*
%TO.N,Net-(D17-A)*%
X173344008Y-116372250D03*
%TO.N,Net-(D19-A)*%
X98093896Y-134991810D03*
%TO.N,Net-(D21-A)*%
X141093960Y-134991810D03*
%TO.N,Net-(D23-A)*%
X184094024Y-134991810D03*
%TO.N,Net-(D25-A)*%
X130343944Y-153611370D03*
%TO.N,Net-(D27-A)*%
X172672132Y-153611370D03*
%TO.N,Net-(D29-A)*%
X205594056Y-172230930D03*
%TO.N,Net-(D7-A)*%
X98093896Y-97752690D03*
%TO.N,Net-(D10-A)*%
X162593992Y-97752690D03*
%TO.N,Net-(D2-A)*%
X108172036Y-79133130D03*
%TO.N,Net-(D4-A)*%
X151843976Y-79133130D03*
%TO.N,Net-(D6-A)*%
X194172164Y-79133130D03*
%TO.N,Net-(D8-A)*%
X118922052Y-97752690D03*
%TO.N,Net-(D9-A)*%
X141093960Y-97752690D03*
%TO.N,Net-(D12-A)*%
X205594056Y-97752690D03*
%TO.N,Net-(D14-A)*%
X108843912Y-116372250D03*
%TO.N,Net-(D16-A)*%
X151172100Y-116372250D03*
%TO.N,Net-(D18-A)*%
X194844040Y-116372250D03*
%TO.N,Net-(D20-A)*%
X119593928Y-134991810D03*
%TO.N,Net-(D22-A)*%
X162593992Y-134991810D03*
%TO.N,Net-(D24-A)*%
X205594056Y-134991810D03*
%TO.N,Net-(D26-A)*%
X151843976Y-153611370D03*
%TO.N,Net-(D28-A)*%
X194844040Y-153611370D03*
%TO.N,Net-(D30-A)*%
X194844040Y-190850490D03*
%TO.N,ROW1_L*%
X92718888Y-138870885D03*
X91375136Y-178437450D03*
%TO.N,ROW2_L*%
X100781400Y-166800225D03*
X98093896Y-143525775D03*
%TO.N,ROW3_L*%
X100781400Y-143525775D03*
X103468904Y-166800225D03*
%TO.N,ROW4_L*%
X106156408Y-166800225D03*
X104812656Y-143525775D03*
%TO.N,ROW5_L*%
X110187664Y-164472780D03*
X131687696Y-155938815D03*
%TO.N,COL1_L*%
X110187664Y-170679300D03*
%TO.N,COL2_L*%
X110187664Y-172230930D03*
%TO.N,COL3_L*%
X110187664Y-173782560D03*
%TO.N,COL4_L*%
X110187664Y-175334190D03*
%TO.N,COL5_L*%
X206265932Y-155938815D03*
X206265932Y-146629035D03*
X110187664Y-176885820D03*
%TO.N,COL6_L*%
X110187664Y-178437450D03*
%TO.N,Net-(BT3-+)*%
X360125536Y-194729565D03*
%TO.N,ROW1_R*%
X351391148Y-137319255D03*
X333250496Y-165248595D03*
%TO.N,Net-(D31-A)*%
X243219112Y-79133130D03*
%TO.N,Net-(D32-A)*%
X264719144Y-79133130D03*
%TO.N,Net-(D33-A)*%
X286219176Y-79133130D03*
%TO.N,Net-(D34-A)*%
X307719208Y-79133130D03*
%TO.N,Net-(D35-A)*%
X329219240Y-79133130D03*
%TO.N,Net-(D36-A)*%
X350719272Y-79133130D03*
%TO.N,ROW2_R*%
X357460348Y-122601086D03*
X333250496Y-179989080D03*
%TO.N,Net-(D37-A)*%
X232469096Y-97752690D03*
%TO.N,Net-(D38-A)*%
X253969128Y-97752690D03*
%TO.N,Net-(D39-A)*%
X275469160Y-97752690D03*
%TO.N,Net-(D40-A)*%
X296969192Y-97752690D03*
%TO.N,Net-(D41-A)*%
X318469224Y-97752690D03*
%TO.N,Net-(D42-A)*%
X339969256Y-97752690D03*
%TO.N,ROW3_R*%
X337281752Y-177661635D03*
X348703644Y-142749960D03*
%TO.N,Net-(D43-A)*%
X243219112Y-116372250D03*
%TO.N,Net-(D44-A)*%
X264719144Y-116372250D03*
%TO.N,Net-(D45-A)*%
X286219176Y-116372250D03*
%TO.N,Net-(D46-A)*%
X307719208Y-116372250D03*
%TO.N,Net-(D47-A)*%
X329219240Y-116372250D03*
%TO.N,Net-(D48-A)*%
X350719272Y-116372250D03*
%TO.N,ROW4_R*%
X337281752Y-176110005D03*
X347359892Y-142749960D03*
%TO.N,Net-(D49-A)*%
X232469096Y-134991810D03*
%TO.N,Net-(D50-A)*%
X253969128Y-134991810D03*
%TO.N,Net-(D51-A)*%
X275469160Y-134991810D03*
%TO.N,Net-(D52-A)*%
X296969192Y-134991810D03*
%TO.N,Net-(D53-A)*%
X318469224Y-134991810D03*
%TO.N,Net-(D54-A)*%
X339969256Y-134991810D03*
%TO.N,ROW5_R*%
X337281752Y-174558375D03*
X316453596Y-159042075D03*
%TO.N,Net-(D55-A)*%
X243219112Y-190850490D03*
%TO.N,Net-(D56-A)*%
X232469096Y-172230930D03*
%TO.N,Net-(D57-A)*%
X243219112Y-153611370D03*
%TO.N,Net-(D58-A)*%
X264719144Y-153611370D03*
%TO.N,Net-(D59-A)*%
X286219176Y-153611370D03*
%TO.N,Net-(D60-A)*%
X307719208Y-153611370D03*
%TO.N,COL1_R*%
X333250496Y-174558375D03*
%TO.N,COL2_R*%
X333250496Y-173006745D03*
%TO.N,COL3_R*%
X333250496Y-171455115D03*
%TO.N,COL4_R*%
X333250496Y-169903485D03*
%TO.N,COL5_R*%
X333250496Y-168351855D03*
%TO.N,COL6_R*%
X333250496Y-166800225D03*
%TO.N,Net-(U2-PA31_SWDIO)*%
X361469288Y-152059740D03*
%TO.N,Net-(SW4-B)*%
X362485414Y-193505561D03*
%TO.N,Net-(U2-PA30_SWCLK)*%
X361469288Y-154387185D03*
%TO.N,Net-(U1-PA31_SWDIO)*%
X90650636Y-165248595D03*
X81968872Y-154610873D03*
%TO.N,Net-(U1-PA30_SWCLK)*%
X81968872Y-152835555D03*
%TO.N,Net-(BT1-+)*%
X83312624Y-186971415D03*
X110912664Y-179213265D03*
X110859540Y-171455115D03*
%TO.N,Net-(SW2-B)*%
X83312624Y-190074675D03*
%TO.N,Net-(BT2-+)*%
X106828284Y-169903485D03*
%TD*%
D15*
%TO.N,Net-(D1-A)*%
X86606372Y-73233175D02*
X86606372Y-79067498D01*
X86606372Y-79067498D02*
X86672004Y-79133130D01*
%TO.N,Net-(D3-A)*%
X129606373Y-79067435D02*
X129672068Y-79133130D01*
X129606373Y-73233174D02*
X129606373Y-79067435D01*
%TO.N,Net-(D5-A)*%
X172856370Y-73233175D02*
X172856370Y-78645492D01*
X172856370Y-78645492D02*
X173344008Y-79133130D01*
%TO.N,Net-(D11-A)*%
X183606372Y-91852672D02*
X183606372Y-97265038D01*
X183606372Y-97265038D02*
X184094024Y-97752690D01*
%TO.N,Net-(D13-A)*%
X86856374Y-115884744D02*
X87343880Y-116372250D01*
X86856374Y-110472172D02*
X86856374Y-115884744D01*
%TO.N,Net-(D15-A)*%
X129856370Y-115884676D02*
X130343944Y-116372250D01*
X129856370Y-110472175D02*
X129856370Y-115884676D01*
%TO.N,Net-(D17-A)*%
X172856371Y-110472174D02*
X172856371Y-115884613D01*
X172856371Y-115884613D02*
X173344008Y-116372250D01*
%TO.N,Net-(D19-A)*%
X97606369Y-134504283D02*
X98093896Y-134991810D01*
X97606369Y-129091777D02*
X97606369Y-134504283D01*
%TO.N,Net-(D21-A)*%
X140606369Y-129091778D02*
X140606369Y-134504219D01*
X140606369Y-134504219D02*
X141093960Y-134991810D01*
%TO.N,Net-(D23-A)*%
X183606367Y-129091777D02*
X183606367Y-134504153D01*
X183606367Y-134504153D02*
X184094024Y-134991810D01*
%TO.N,Net-(D25-A)*%
X129856369Y-153123795D02*
X130343944Y-153611370D01*
X129856369Y-147711279D02*
X129856369Y-153123795D01*
%TO.N,Net-(D27-A)*%
X172606369Y-147711279D02*
X172606369Y-153545607D01*
X172606369Y-153545607D02*
X172672132Y-153611370D01*
%TO.N,Net-(D29-A)*%
X205106370Y-166330875D02*
X205106370Y-171743244D01*
X205106370Y-171743244D02*
X205594056Y-172230930D01*
%TO.N,Net-(D7-A)*%
X97606371Y-91852675D02*
X97606371Y-97265165D01*
X97606371Y-97265165D02*
X98093896Y-97752690D01*
%TO.N,Net-(D10-A)*%
X162106372Y-91852675D02*
X162106372Y-97265070D01*
X162106372Y-97265070D02*
X162593992Y-97752690D01*
%TO.N,Net-(D2-A)*%
X108106372Y-79067466D02*
X108172036Y-79133130D01*
X108106372Y-73233172D02*
X108106372Y-79067466D01*
%TO.N,Net-(D4-A)*%
X151356370Y-78645524D02*
X151843976Y-79133130D01*
X151356370Y-73233172D02*
X151356370Y-78645524D01*
%TO.N,Net-(D6-A)*%
X194106370Y-73233172D02*
X194106370Y-79067336D01*
X194106370Y-79067336D02*
X194172164Y-79133130D01*
%TO.N,Net-(D8-A)*%
X118856371Y-91852670D02*
X118856371Y-97687009D01*
X118856371Y-97687009D02*
X118922052Y-97752690D01*
%TO.N,Net-(D9-A)*%
X140606369Y-91852676D02*
X140606369Y-97265099D01*
X140606369Y-97265099D02*
X141093960Y-97752690D01*
%TO.N,Net-(D12-A)*%
X205106368Y-97265002D02*
X205594056Y-97752690D01*
X205106368Y-91852675D02*
X205106368Y-97265002D01*
%TO.N,Net-(D14-A)*%
X108356375Y-110472174D02*
X108356375Y-115884713D01*
X108356375Y-115884713D02*
X108843912Y-116372250D01*
%TO.N,Net-(D16-A)*%
X151106375Y-116306525D02*
X151172100Y-116372250D01*
X151106375Y-110472174D02*
X151106375Y-116306525D01*
%TO.N,Net-(D18-A)*%
X194356371Y-110472170D02*
X194356371Y-115884581D01*
X194356371Y-115884581D02*
X194844040Y-116372250D01*
%TO.N,Net-(D20-A)*%
X119106367Y-129091772D02*
X119106367Y-134504249D01*
X119106367Y-134504249D02*
X119593928Y-134991810D01*
%TO.N,Net-(D22-A)*%
X162106369Y-129091776D02*
X162106369Y-134504187D01*
X162106369Y-134504187D02*
X162593992Y-134991810D01*
%TO.N,Net-(D24-A)*%
X205106371Y-129091776D02*
X205106371Y-134504125D01*
X205106371Y-134504125D02*
X205594056Y-134991810D01*
%TO.N,Net-(D26-A)*%
X151356369Y-147711278D02*
X151356369Y-153123763D01*
X151356369Y-153123763D02*
X151843976Y-153611370D01*
%TO.N,Net-(D28-A)*%
X194356369Y-147711273D02*
X194356369Y-153123699D01*
X194356369Y-153123699D02*
X194844040Y-153611370D01*
%TO.N,Net-(D30-A)*%
X194356368Y-190362818D02*
X194844040Y-190850490D01*
X194356368Y-184950373D02*
X194356368Y-190362818D01*
%TO.N,ROW1_L*%
X91375136Y-158058382D02*
X93390764Y-156042754D01*
X91375136Y-178437450D02*
X91375136Y-158058382D01*
X93390764Y-156042754D02*
X93390764Y-139542761D01*
X93390764Y-139542761D02*
X92718888Y-138870885D01*
%TO.N,ROW2_L*%
X100781400Y-166800225D02*
X100781400Y-146213279D01*
X100781400Y-146213279D02*
X98093896Y-143525775D01*
%TO.N,ROW3_L*%
X103468904Y-146213279D02*
X100781400Y-143525775D01*
X103468904Y-166800225D02*
X103468904Y-146213279D01*
%TO.N,ROW4_L*%
X106156408Y-144869527D02*
X104812656Y-143525775D01*
X106156408Y-166800225D02*
X106156408Y-144869527D01*
%TO.N,ROW5_L*%
X110187664Y-164472780D02*
X118721629Y-155938815D01*
X118721629Y-155938815D02*
X131687696Y-155938815D01*
%TO.N,COL1_L*%
X109206371Y-101922175D02*
X98456374Y-112672172D01*
X122991997Y-145077405D02*
X109206369Y-131291777D01*
X111523962Y-170679300D02*
X110187664Y-170679300D01*
X109206371Y-86433174D02*
X109206371Y-94052675D01*
X122385372Y-159817890D02*
X111523962Y-170679300D01*
X141456369Y-149911279D02*
X136622495Y-145077405D01*
X109206371Y-94052675D02*
X109206371Y-101922175D01*
X109206369Y-123422167D02*
X109206369Y-131291777D01*
X134323591Y-159817890D02*
X122385372Y-159817890D01*
X98206372Y-75433175D02*
X109206371Y-86433174D01*
X141456369Y-149911279D02*
X141456369Y-152685112D01*
X141456369Y-152685112D02*
X134323591Y-159817890D01*
X136622495Y-145077405D02*
X122991997Y-145077405D01*
X98456374Y-112672172D02*
X109206369Y-123422167D01*
%TO.N,COL2_L*%
X130456371Y-86183171D02*
X119706372Y-75433172D01*
X162956369Y-152685111D02*
X155823590Y-159817890D01*
X143781464Y-147404850D02*
X130706367Y-134329753D01*
X131368424Y-172230930D02*
X143781464Y-159817890D01*
X130706367Y-123422166D02*
X119956375Y-112672174D01*
X155823590Y-159817890D02*
X143781464Y-159817890D01*
X130456371Y-94052670D02*
X130456371Y-86183171D01*
X130706367Y-134329753D02*
X130706367Y-131291772D01*
X119956375Y-112672174D02*
X130456371Y-102172178D01*
X130456371Y-102172178D02*
X130456371Y-94052670D01*
X131368424Y-172230930D02*
X110187664Y-172230930D01*
X130706367Y-131291772D02*
X130706367Y-123422166D01*
X162956369Y-149911278D02*
X162956369Y-152685111D01*
X143781464Y-159817890D02*
X143781464Y-147404850D01*
%TO.N,COL3_L*%
X118430952Y-175660005D02*
X113976798Y-175660005D01*
X184206369Y-149911279D02*
X184206369Y-152685112D01*
X165281496Y-159817890D02*
X151316826Y-173782560D01*
X112099353Y-173782560D02*
X110187664Y-173782560D01*
X177073591Y-159817890D02*
X165281496Y-159817890D01*
X152206369Y-123422174D02*
X152206369Y-131291778D01*
X152206369Y-101922176D02*
X141456370Y-112672175D01*
X113976798Y-175660005D02*
X112099353Y-173782560D01*
X184206369Y-152685112D02*
X177073591Y-159817890D01*
X152206369Y-134329723D02*
X152206369Y-131291778D01*
X141456370Y-112672175D02*
X152206369Y-123422174D01*
X152206369Y-94052676D02*
X152206369Y-101922176D01*
X141206373Y-75433174D02*
X152206369Y-86433170D01*
X151316826Y-173782560D02*
X120308397Y-173782560D01*
X120308397Y-173782560D02*
X118430952Y-175660005D01*
X165281496Y-159817890D02*
X165281496Y-147404850D01*
X165281496Y-147404850D02*
X152206369Y-134329723D01*
X152206369Y-86433170D02*
X152206369Y-94052676D01*
%TO.N,COL4_L*%
X113014587Y-175334190D02*
X110187664Y-175334190D01*
X173706372Y-94052675D02*
X173706372Y-101672177D01*
X205956369Y-149911273D02*
X205956369Y-152685106D01*
X171265228Y-175334190D02*
X119393163Y-175334190D01*
X173706372Y-86183174D02*
X162956370Y-75433172D01*
X119393163Y-175334190D02*
X118617348Y-176110005D01*
X173706372Y-94052675D02*
X173706372Y-86183174D01*
X173706369Y-134329691D02*
X173706369Y-131291776D01*
X186781528Y-147404850D02*
X173706369Y-134329691D01*
X186781528Y-159817890D02*
X171265228Y-175334190D01*
X198823585Y-159817890D02*
X186781528Y-159817890D01*
X205956369Y-152685106D02*
X198823585Y-159817890D01*
X173706369Y-131291776D02*
X173706369Y-123672168D01*
X113790402Y-176110005D02*
X113014587Y-175334190D01*
X118617348Y-176110005D02*
X113790402Y-176110005D01*
X186781528Y-159817890D02*
X186781528Y-147404850D01*
X173706372Y-101672177D02*
X162706375Y-112672174D01*
X173706369Y-123672168D02*
X162706375Y-112672174D01*
%TO.N,COL5_L*%
X187342010Y-176885820D02*
X198203420Y-166024410D01*
X195206372Y-101922173D02*
X184456371Y-112672174D01*
X216706370Y-168530875D02*
X214331370Y-170905875D01*
X195206367Y-123422170D02*
X195206367Y-131291777D01*
X195206367Y-135569470D02*
X195206367Y-131291777D01*
X206756629Y-176885820D02*
X187342010Y-176885820D01*
X184456371Y-112672174D02*
X195206367Y-123422170D01*
X187342010Y-176885820D02*
X110187664Y-176885820D01*
X206265932Y-146629035D02*
X195206367Y-135569470D01*
X184456370Y-75433175D02*
X195206372Y-86183177D01*
X212736574Y-170905875D02*
X206756629Y-176885820D01*
X195206372Y-94052672D02*
X195206372Y-101922173D01*
X206265932Y-157961898D02*
X206265932Y-155938815D01*
X195206372Y-86183177D02*
X195206372Y-94052672D01*
X214331370Y-170905875D02*
X212736574Y-170905875D01*
X198203420Y-166024410D02*
X206265932Y-157961898D01*
%TO.N,COL6_L*%
X216706368Y-94052675D02*
X216706368Y-98949479D01*
X207581369Y-160669329D02*
X207581369Y-143255629D01*
X205956368Y-187150373D02*
X205956368Y-183186571D01*
X210705489Y-178437450D02*
X218359700Y-170783239D01*
X208953436Y-125682030D02*
X211096625Y-125682030D01*
X218081370Y-166655875D02*
X213567915Y-166655875D01*
X205956371Y-112672170D02*
X205956371Y-122684965D01*
X201207247Y-178437450D02*
X110187664Y-178437450D01*
X208953436Y-88442910D02*
X211096603Y-88442910D01*
X216706371Y-134130627D02*
X216706371Y-131291776D01*
X205956368Y-183186571D02*
X210705489Y-178437450D01*
X218359700Y-166934205D02*
X218081370Y-166655875D01*
X205706370Y-75433172D02*
X205706370Y-85195844D01*
X205706370Y-85195844D02*
X208953436Y-88442910D01*
X205956371Y-109699476D02*
X205956371Y-112672170D01*
X218359700Y-170783239D02*
X218359700Y-166934205D01*
X216706368Y-98949479D02*
X205956371Y-109699476D01*
X211096603Y-88442910D02*
X216706368Y-94052675D01*
X205956371Y-122684965D02*
X208953436Y-125682030D01*
X205956368Y-183186571D02*
X201207247Y-178437450D01*
X207581369Y-143255629D02*
X216706371Y-134130627D01*
X213567915Y-166655875D02*
X207581369Y-160669329D01*
X211096625Y-125682030D02*
X216706371Y-131291776D01*
%TO.N,Net-(BT3-+)*%
X336351183Y-179264080D02*
X332950191Y-179264080D01*
X336556752Y-175287696D02*
X336556752Y-179058511D01*
X346965676Y-194729565D02*
X360125536Y-194729565D01*
X332525496Y-179688775D02*
X332525496Y-180289385D01*
X329683238Y-170679300D02*
X331285683Y-172281745D01*
X332950191Y-179264080D02*
X332525496Y-179688775D01*
X336556752Y-179058511D02*
X336351183Y-179264080D01*
X332525496Y-180289385D02*
X346965676Y-194729565D01*
X331285683Y-172281745D02*
X333550801Y-172281745D01*
X333550801Y-172281745D02*
X336556752Y-175287696D01*
X327203612Y-170679300D02*
X329683238Y-170679300D01*
%TO.N,Net-(BT4-+)*%
X336106752Y-178268698D02*
X335561370Y-178814080D01*
X335561370Y-178814080D02*
X334226543Y-178814080D01*
X327203612Y-173782560D02*
X334415220Y-173782560D01*
X334415220Y-173782560D02*
X336106752Y-175474092D01*
X334226543Y-178814080D02*
X333394388Y-177981925D01*
X336106752Y-175474092D02*
X336106752Y-178268698D01*
%TO.N,ROW1_R*%
X333250496Y-155459907D02*
X351391148Y-137319255D01*
X333250496Y-165248595D02*
X333250496Y-155459907D01*
%TO.N,Net-(D31-A)*%
X242906608Y-73233170D02*
X242906608Y-78820626D01*
X242906608Y-78820626D02*
X243219112Y-79133130D01*
%TO.N,Net-(D32-A)*%
X264406608Y-78820594D02*
X264719144Y-79133130D01*
X264406608Y-73233170D02*
X264406608Y-78820594D01*
%TO.N,Net-(D33-A)*%
X285906608Y-78820562D02*
X286219176Y-79133130D01*
X285906608Y-73233170D02*
X285906608Y-78820562D01*
%TO.N,Net-(D34-A)*%
X307406608Y-78820530D02*
X307719208Y-79133130D01*
X307406608Y-73233170D02*
X307406608Y-78820530D01*
%TO.N,Net-(D35-A)*%
X328781608Y-78695498D02*
X329219240Y-79133130D01*
X328781608Y-73233170D02*
X328781608Y-78695498D01*
%TO.N,Net-(D36-A)*%
X350406608Y-78820466D02*
X350719272Y-79133130D01*
X350406608Y-73233170D02*
X350406608Y-78820466D01*
%TO.N,ROW2_R*%
X336262579Y-179989080D02*
X349003949Y-167247710D01*
X333250496Y-179989080D02*
X336262579Y-179989080D01*
X357448141Y-122588879D02*
X357460348Y-122601086D01*
X349003949Y-148956480D02*
X352977008Y-144983421D01*
X352977008Y-127060011D02*
X357448141Y-122588879D01*
X352977008Y-144983421D02*
X352977008Y-127060011D01*
X349003949Y-167247710D02*
X349003949Y-148956480D01*
%TO.N,Net-(D37-A)*%
X232156608Y-91852718D02*
X232156608Y-97440202D01*
X232156608Y-97440202D02*
X232469096Y-97752690D01*
%TO.N,Net-(D38-A)*%
X253656608Y-97440170D02*
X253969128Y-97752690D01*
X253656608Y-91852718D02*
X253656608Y-97440170D01*
%TO.N,Net-(D39-A)*%
X275156608Y-97440138D02*
X275469160Y-97752690D01*
X275156608Y-91852718D02*
X275156608Y-97440138D01*
%TO.N,Net-(D40-A)*%
X296656608Y-97440106D02*
X296969192Y-97752690D01*
X296656608Y-91852718D02*
X296656608Y-97440106D01*
%TO.N,Net-(D41-A)*%
X318156608Y-91852718D02*
X318156608Y-97440074D01*
X318156608Y-97440074D02*
X318469224Y-97752690D01*
%TO.N,Net-(D42-A)*%
X339656608Y-91852718D02*
X339656608Y-97440042D01*
X339656608Y-97440042D02*
X339969256Y-97752690D01*
%TO.N,ROW3_R*%
X348084892Y-167530371D02*
X348084892Y-143368712D01*
X337953628Y-177661635D02*
X348084892Y-167530371D01*
X337281752Y-177661635D02*
X337953628Y-177661635D01*
X348084892Y-143368712D02*
X348703644Y-142749960D01*
%TO.N,Net-(D43-A)*%
X242906608Y-110472266D02*
X242906608Y-116059746D01*
X242906608Y-116059746D02*
X243219112Y-116372250D01*
%TO.N,Net-(D44-A)*%
X264406608Y-116059714D02*
X264719144Y-116372250D01*
X264406608Y-110472266D02*
X264406608Y-116059714D01*
%TO.N,Net-(D45-A)*%
X285906608Y-110472266D02*
X285906608Y-116059682D01*
X285906608Y-116059682D02*
X286219176Y-116372250D01*
%TO.N,Net-(D46-A)*%
X307406608Y-116059650D02*
X307719208Y-116372250D01*
X307406608Y-110472266D02*
X307406608Y-116059650D01*
%TO.N,Net-(D47-A)*%
X328906608Y-116059618D02*
X329219240Y-116372250D01*
X328906608Y-110472266D02*
X328906608Y-116059618D01*
%TO.N,Net-(D48-A)*%
X350406608Y-110472266D02*
X350406608Y-116059586D01*
X350406608Y-116059586D02*
X350719272Y-116372250D01*
%TO.N,ROW4_R*%
X338678628Y-174713129D02*
X338678628Y-151431224D01*
X338678628Y-151431224D02*
X347359892Y-142749960D01*
X337281752Y-176110005D02*
X338678628Y-174713129D01*
%TO.N,Net-(D49-A)*%
X232156608Y-129091814D02*
X232156608Y-134679322D01*
X232156608Y-134679322D02*
X232469096Y-134991810D01*
%TO.N,Net-(D50-A)*%
X253656608Y-134679290D02*
X253969128Y-134991810D01*
X253656608Y-129091814D02*
X253656608Y-134679290D01*
%TO.N,Net-(D51-A)*%
X275031608Y-134554258D02*
X275469160Y-134991810D01*
X275031608Y-129091814D02*
X275031608Y-134554258D01*
%TO.N,Net-(D52-A)*%
X296406608Y-129091814D02*
X296406608Y-134429226D01*
X296406608Y-134429226D02*
X296969192Y-134991810D01*
%TO.N,Net-(D53-A)*%
X318156608Y-134679194D02*
X318469224Y-134991810D01*
X318156608Y-129091814D02*
X318156608Y-134679194D01*
%TO.N,Net-(D54-A)*%
X339656608Y-129091814D02*
X339656608Y-134679162D01*
X339656608Y-134679162D02*
X339969256Y-134991810D01*
%TO.N,ROW5_R*%
X336609876Y-173886499D02*
X336609876Y-170471422D01*
X336609876Y-170471422D02*
X333663679Y-167525225D01*
X337281752Y-174558375D02*
X336609876Y-173886499D01*
X332015565Y-167525225D02*
X323532415Y-159042075D01*
X333663679Y-167525225D02*
X332015565Y-167525225D01*
X323532415Y-159042075D02*
X316453596Y-159042075D01*
%TO.N,Net-(D55-A)*%
X242781608Y-190412986D02*
X243219112Y-190850490D01*
X242781608Y-184950458D02*
X242781608Y-190412986D01*
%TO.N,Net-(D56-A)*%
X231906608Y-171668442D02*
X232469096Y-172230930D01*
X231906608Y-166330910D02*
X231906608Y-171668442D01*
%TO.N,Net-(D57-A)*%
X242906608Y-147711362D02*
X242906608Y-153298866D01*
X242906608Y-153298866D02*
X243219112Y-153611370D01*
%TO.N,Net-(D58-A)*%
X264406608Y-153298834D02*
X264719144Y-153611370D01*
X264406608Y-147711362D02*
X264406608Y-153298834D01*
%TO.N,Net-(D59-A)*%
X285906608Y-153298802D02*
X286219176Y-153611370D01*
X285906608Y-147711362D02*
X285906608Y-153298802D01*
%TO.N,Net-(D60-A)*%
X307406608Y-153298770D02*
X307719208Y-153611370D01*
X307406608Y-147711362D02*
X307406608Y-153298770D01*
%TO.N,COL1_R*%
X249547675Y-182316525D02*
X254381608Y-187150458D01*
X234436482Y-182316525D02*
X249547675Y-182316525D01*
X243756608Y-94052718D02*
X243756608Y-101922266D01*
X236500352Y-146309313D02*
X236500352Y-160593705D01*
X243756608Y-101922266D02*
X254506608Y-112672266D01*
X228381608Y-176261651D02*
X234436482Y-182316525D01*
X254506608Y-75433170D02*
X254506608Y-83302718D01*
X243756608Y-131291814D02*
X243756608Y-139053057D01*
X254506608Y-112672266D02*
X254506608Y-120541814D01*
X228381608Y-166288520D02*
X228381608Y-176261651D01*
X254506608Y-83302718D02*
X243756608Y-94052718D01*
X332474681Y-175334190D02*
X266197876Y-175334190D01*
X333250496Y-174558375D02*
X332474681Y-175334190D01*
X243756608Y-139053057D02*
X236500352Y-146309313D01*
X230973163Y-163696965D02*
X228381608Y-166288520D01*
X254506608Y-120541814D02*
X243756608Y-131291814D01*
X233397092Y-163696965D02*
X230973163Y-163696965D01*
X266197876Y-175334190D02*
X254381608Y-187150458D01*
X236500352Y-160593705D02*
X233397092Y-163696965D01*
%TO.N,COL2_R*%
X276006608Y-120541814D02*
X265256608Y-131291814D01*
X239381608Y-164405910D02*
X243506608Y-168530910D01*
X276006608Y-83302718D02*
X265256608Y-94052718D01*
X276006608Y-112672266D02*
X276006608Y-120541814D01*
X265256608Y-94052718D02*
X265256608Y-101922266D01*
X265391020Y-172230930D02*
X261691000Y-168530910D01*
X333250496Y-173006745D02*
X330562992Y-173006745D01*
X249876221Y-145077405D02*
X242290565Y-145077405D01*
X329787177Y-172230930D02*
X265391020Y-172230930D01*
X239381608Y-147986362D02*
X239381608Y-164405910D01*
X265256608Y-101922266D02*
X276006608Y-112672266D01*
X242290565Y-145077405D02*
X239381608Y-147986362D01*
X262881608Y-133666814D02*
X261286812Y-133666814D01*
X265256608Y-131291814D02*
X262881608Y-133666814D01*
X330562992Y-173006745D02*
X329787177Y-172230930D01*
X261691000Y-168530910D02*
X243506608Y-168530910D01*
X261286812Y-133666814D02*
X249876221Y-145077405D01*
X276006608Y-75433170D02*
X276006608Y-83302718D01*
%TO.N,COL3_R*%
X297506608Y-75433170D02*
X297506608Y-83302718D01*
X266062896Y-169127670D02*
X254506608Y-157571382D01*
X297506608Y-83302718D02*
X286756608Y-94052718D01*
X254506608Y-157571382D02*
X254506608Y-149911362D01*
X332114622Y-171455115D02*
X329787177Y-169127670D01*
X297506608Y-120416814D02*
X286631608Y-131291814D01*
X274860893Y-145836362D02*
X258581608Y-145836362D01*
X286631608Y-134065647D02*
X274860893Y-145836362D01*
X286756608Y-94052718D02*
X286756608Y-101922266D01*
X333250496Y-171455115D02*
X332114622Y-171455115D01*
X329787177Y-169127670D02*
X266062896Y-169127670D01*
X286756608Y-101922266D02*
X297506608Y-112672266D01*
X258581608Y-145836362D02*
X254506608Y-149911362D01*
X297506608Y-112672266D02*
X297506608Y-120416814D01*
X286631608Y-131291814D02*
X286631608Y-134065647D01*
%TO.N,COL4_R*%
X305631608Y-133666814D02*
X304036812Y-133666814D01*
X304036812Y-133666814D02*
X292626221Y-145077405D01*
X319006608Y-83302718D02*
X308256608Y-94052718D01*
X292895471Y-166800225D02*
X276006608Y-149911362D01*
X308006608Y-131291814D02*
X305631608Y-133666814D01*
X319006608Y-75433170D02*
X319006608Y-83302718D01*
X333250496Y-169903485D02*
X331408516Y-169903485D01*
X280840565Y-145077405D02*
X276006608Y-149911362D01*
X331408516Y-169903485D02*
X328305256Y-166800225D01*
X292626221Y-145077405D02*
X280840565Y-145077405D01*
X319006608Y-112672266D02*
X319006608Y-120291814D01*
X328305256Y-166800225D02*
X292895471Y-166800225D01*
X308256608Y-94052718D02*
X308256608Y-101922266D01*
X308256608Y-101922266D02*
X319006608Y-112672266D01*
X319006608Y-120291814D02*
X308006608Y-131291814D01*
%TO.N,COL5_R*%
X330016399Y-131291814D02*
X329756608Y-131291814D01*
X329756608Y-101922266D02*
X340506608Y-112672266D01*
X327355793Y-164472780D02*
X302136322Y-164472780D01*
X302136322Y-164472780D02*
X297506608Y-159843066D01*
X318744850Y-145077405D02*
X302340565Y-145077405D01*
X340506608Y-112672266D02*
X340506608Y-120801605D01*
X297506608Y-159843066D02*
X297506608Y-149911362D01*
X329756608Y-94052718D02*
X329756608Y-101922266D01*
X302340565Y-145077405D02*
X297506608Y-149911362D01*
X329756608Y-131291814D02*
X329756608Y-134065647D01*
X340506608Y-120801605D02*
X330016399Y-131291814D01*
X340381608Y-83427718D02*
X329756608Y-94052718D01*
X333250496Y-168351855D02*
X331234868Y-168351855D01*
X331234868Y-168351855D02*
X327355793Y-164472780D01*
X340381608Y-75433170D02*
X340381608Y-83427718D01*
X329756608Y-134065647D02*
X318744850Y-145077405D01*
%TO.N,COL6_R*%
X351256608Y-131291814D02*
X351256608Y-134065647D01*
X351256608Y-94052718D02*
X351256608Y-104600485D01*
X335410893Y-149911362D02*
X319006608Y-149911362D01*
X319006608Y-152860699D02*
X319006608Y-149911362D01*
X352063024Y-89994540D02*
X351256608Y-90800956D01*
X351256608Y-134065647D02*
X335410893Y-149911362D01*
X333250496Y-166800225D02*
X332946134Y-166800225D01*
X354390469Y-89994540D02*
X352063024Y-89994540D01*
X351256608Y-90800956D02*
X351256608Y-94052718D01*
X362006608Y-75433170D02*
X362006608Y-82378401D01*
X351256608Y-104600485D02*
X353718593Y-107062470D01*
X362006608Y-82378401D02*
X354390469Y-89994540D01*
X356396812Y-107062470D02*
X362006608Y-112672266D01*
X362006608Y-112672266D02*
X362006608Y-117030228D01*
X351256608Y-127780228D02*
X351256608Y-131291814D01*
X332946134Y-166800225D02*
X319006608Y-152860699D01*
X353718593Y-107062470D02*
X356396812Y-107062470D01*
X362006608Y-117030228D02*
X351256608Y-127780228D01*
%TO.N,Net-(U2-PA31_SWDIO)*%
X359522413Y-157789206D02*
X348634388Y-168677231D01*
X348634388Y-168677231D02*
X348634388Y-170996925D01*
X361469288Y-152059740D02*
X360465828Y-152059740D01*
X360465828Y-152059740D02*
X359522413Y-153003155D01*
X359522413Y-153003155D02*
X359522413Y-157789206D01*
%TO.N,Net-(SW4-B)*%
X332075496Y-177395817D02*
X333394388Y-176076925D01*
X362485414Y-193505561D02*
X360485595Y-195505380D01*
X332075496Y-180475781D02*
X332075496Y-177395817D01*
X360485595Y-195505380D02*
X347105095Y-195505380D01*
X347105095Y-195505380D02*
X332075496Y-180475781D01*
%TO.N,Net-(U2-PA30_SWCLK)*%
X360797412Y-158619061D02*
X352734900Y-166681573D01*
X351391828Y-175334190D02*
X350431653Y-175334190D01*
X352734900Y-166681573D02*
X352734900Y-173991118D01*
X361469288Y-154387185D02*
X360797412Y-155059061D01*
X352734900Y-173991118D02*
X351391828Y-175334190D01*
X350431653Y-175334190D02*
X348634388Y-173536925D01*
X360797412Y-155059061D02*
X360797412Y-158619061D01*
%TO.N,Net-(U1-PA31_SWDIO)*%
X81968872Y-154610873D02*
X87151812Y-154610873D01*
X87151812Y-154610873D02*
X90650636Y-158109697D01*
X90650636Y-158109697D02*
X90650636Y-165248595D01*
%TO.N,Net-(U1-PA30_SWCLK)*%
X94062640Y-137319255D02*
X94947664Y-138204279D01*
X81968872Y-152835555D02*
X86360187Y-152835555D01*
X91375136Y-138663007D02*
X92718888Y-137319255D01*
X92718888Y-137319255D02*
X94062640Y-137319255D01*
X91375136Y-147820606D02*
X91375136Y-138663007D01*
X94947664Y-138204279D02*
X94947664Y-170891855D01*
X86360187Y-152835555D02*
X91375136Y-147820606D01*
%TO.N,Net-(BT1-+)*%
X110912664Y-179213265D02*
X110912664Y-179935956D01*
X115509548Y-171404300D02*
X110910355Y-171404300D01*
X103877205Y-186971415D02*
X83312624Y-186971415D01*
X110910355Y-171404300D02*
X110859540Y-171455115D01*
X116234548Y-170679300D02*
X115509548Y-171404300D01*
X110912664Y-179935956D02*
X103877205Y-186971415D01*
%TO.N,Net-(SW2-B)*%
X82587624Y-189349675D02*
X82587624Y-186248724D01*
X83312624Y-190074675D02*
X82587624Y-189349675D01*
X103468904Y-172237560D02*
X106656109Y-169050355D01*
X82587624Y-186248724D02*
X84968193Y-183868155D01*
X101349337Y-183868155D02*
X103468904Y-181748588D01*
X106656109Y-169050355D02*
X109489164Y-169050355D01*
X103468904Y-181748588D02*
X103468904Y-172237560D01*
X84968193Y-183868155D02*
X101349337Y-183868155D01*
X109489164Y-169050355D02*
X110187664Y-168351855D01*
%TO.N,Net-(BT2-+)*%
X116234548Y-173782560D02*
X115407918Y-172955930D01*
X109880729Y-172955930D02*
X106828284Y-169903485D01*
X115407918Y-172955930D02*
X109880729Y-172955930D01*
%TD*%
D16*
X86672004Y-79133130D03*
X129672068Y-79133130D03*
X173344008Y-79133130D03*
X184094024Y-97752690D03*
X87343880Y-116372250D03*
X130343944Y-116372250D03*
X173344008Y-116372250D03*
X98093896Y-134991810D03*
X141093960Y-134991810D03*
X184094024Y-134991810D03*
X130343944Y-153611370D03*
X172672132Y-153611370D03*
X205594056Y-172230930D03*
X98093896Y-97752690D03*
X162593992Y-97752690D03*
X108172036Y-79133130D03*
X151843976Y-79133130D03*
X194172164Y-79133130D03*
X118922052Y-97752690D03*
X141093960Y-97752690D03*
X205594056Y-97752690D03*
X108843912Y-116372250D03*
X151172100Y-116372250D03*
X194844040Y-116372250D03*
X119593928Y-134991810D03*
X162593992Y-134991810D03*
X205594056Y-134991810D03*
X151843976Y-153611370D03*
X194844040Y-153611370D03*
X194844040Y-190850490D03*
X92718888Y-138870885D03*
X91375136Y-178437450D03*
X100781400Y-166800225D03*
X98093896Y-143525775D03*
X100781400Y-143525775D03*
X103468904Y-166800225D03*
X106156408Y-166800225D03*
X104812656Y-143525775D03*
X110187664Y-164472780D03*
X131687696Y-155938815D03*
X110187664Y-170679300D03*
X110187664Y-172230930D03*
X110187664Y-173782560D03*
X110187664Y-175334190D03*
X206265932Y-155938815D03*
X206265932Y-146629035D03*
X110187664Y-176885820D03*
X110187664Y-178437450D03*
X360125536Y-194729565D03*
X351391148Y-137319255D03*
X333250496Y-165248595D03*
X243219112Y-79133130D03*
X264719144Y-79133130D03*
X286219176Y-79133130D03*
X307719208Y-79133130D03*
X329219240Y-79133130D03*
X350719272Y-79133130D03*
X357460348Y-122601086D03*
X333250496Y-179989080D03*
X232469096Y-97752690D03*
X253969128Y-97752690D03*
X275469160Y-97752690D03*
X296969192Y-97752690D03*
X318469224Y-97752690D03*
X339969256Y-97752690D03*
X337281752Y-177661635D03*
X348703644Y-142749960D03*
X243219112Y-116372250D03*
X264719144Y-116372250D03*
X286219176Y-116372250D03*
X307719208Y-116372250D03*
X329219240Y-116372250D03*
X350719272Y-116372250D03*
X337281752Y-176110005D03*
X347359892Y-142749960D03*
X232469096Y-134991810D03*
X253969128Y-134991810D03*
X275469160Y-134991810D03*
X296969192Y-134991810D03*
X318469224Y-134991810D03*
X339969256Y-134991810D03*
X337281752Y-174558375D03*
X316453596Y-159042075D03*
X243219112Y-190850490D03*
X232469096Y-172230930D03*
X243219112Y-153611370D03*
X264719144Y-153611370D03*
X286219176Y-153611370D03*
X307719208Y-153611370D03*
X333250496Y-174558375D03*
X333250496Y-173006745D03*
X333250496Y-171455115D03*
X333250496Y-169903485D03*
X333250496Y-168351855D03*
X333250496Y-166800225D03*
X361469288Y-152059740D03*
X362485414Y-193505561D03*
X361469288Y-154387185D03*
X90650636Y-165248595D03*
X81968872Y-154610873D03*
X81968872Y-152835555D03*
X83312624Y-186971415D03*
X110912664Y-179213265D03*
X110859540Y-171455115D03*
X83312624Y-190074675D03*
X106828284Y-169903485D03*
X219031576Y-133511810D03*
X219031576Y-134251810D03*
X219031576Y-134991810D03*
X219031576Y-135731810D03*
X219031576Y-136471810D03*
X221831576Y-134991810D03*
X224631576Y-133881810D03*
X224631576Y-134621810D03*
X224631576Y-135361810D03*
X224631576Y-136101810D03*
X256831976Y-122578830D03*
X342832104Y-85339710D03*
X90031384Y-190850490D03*
X300167978Y-85339710D03*
X353582120Y-190850550D03*
X186906368Y-85646263D03*
X256831976Y-172230990D03*
X90031384Y-153611370D03*
X257167914Y-85339710D03*
X143906369Y-85646266D03*
X353582120Y-153611430D03*
X92407664Y-173431855D03*
X92407664Y-170891855D03*
X94947664Y-173431855D03*
X94947664Y-170891855D03*
X100662664Y-176606855D03*
X98757664Y-176606855D03*
X110187664Y-168351855D03*
X110187664Y-166446855D03*
X351174388Y-170996925D03*
X351174388Y-173536925D03*
X348634388Y-170996925D03*
X348634388Y-173536925D03*
X342919388Y-167821925D03*
X344824388Y-167821925D03*
X333394388Y-176076925D03*
X333394388Y-177981925D03*
X100906370Y-85646263D03*
X342832104Y-122578830D03*
X80562624Y-153611370D03*
X83312624Y-153611370D03*
X81053244Y-189121415D03*
X81053244Y-192121415D03*
X224581576Y-173710930D03*
X224581576Y-172970930D03*
X224581576Y-172230930D03*
X224581576Y-171490930D03*
X224581576Y-170750930D03*
X221781576Y-172230930D03*
X218981576Y-173340930D03*
X218981576Y-172600930D03*
X218981576Y-171860930D03*
X218981576Y-171120930D03*
X362384916Y-192121415D03*
X362384916Y-189121415D03*
X186781528Y-172230930D03*
X363022413Y-153313815D03*
X360272413Y-153313815D03*
X143906367Y-123273338D03*
X186906367Y-123273339D03*
X300167978Y-122578830D03*
X224581576Y-99232690D03*
X224581576Y-98492690D03*
X224581576Y-97752690D03*
X224581576Y-97012690D03*
X224581576Y-96272690D03*
X221781576Y-97752690D03*
X218981576Y-98862690D03*
X218981576Y-98122690D03*
X218981576Y-97382690D03*
X218981576Y-96642690D03*
X100906369Y-123273339D03*
X181406367Y-134991777D03*
X186906367Y-129091777D03*
X186906367Y-134991777D03*
X191906367Y-131291777D03*
X192406367Y-134991777D03*
X337456608Y-134991814D03*
X342956608Y-129091814D03*
X342956608Y-134991814D03*
X347956608Y-131291814D03*
X348456608Y-134991814D03*
X202906370Y-172230875D03*
X208406370Y-166330875D03*
X208406370Y-172230875D03*
X213406370Y-168530875D03*
X213906370Y-172230875D03*
X229956608Y-97752718D03*
X235456608Y-91852718D03*
X235456608Y-97752718D03*
X240456608Y-94052718D03*
X240956608Y-97752718D03*
X272956608Y-97752718D03*
X278456608Y-91852718D03*
X278456608Y-97752718D03*
X283456608Y-94052718D03*
X283956608Y-97752718D03*
X348206608Y-79133170D03*
X353706608Y-73233170D03*
X353706608Y-79133170D03*
X358706608Y-75433170D03*
X359206608Y-79133170D03*
X251456608Y-97752718D03*
X256956608Y-91852718D03*
X256956608Y-97752718D03*
X261956608Y-94052718D03*
X262456608Y-97752718D03*
X305206608Y-79133170D03*
X310706608Y-73233170D03*
X310706608Y-79133170D03*
X315706608Y-75433170D03*
X316206608Y-79133170D03*
X251456608Y-134991814D03*
X256956608Y-129091814D03*
X256956608Y-134991814D03*
X261956608Y-131291814D03*
X262456608Y-134991814D03*
X326706608Y-116372266D03*
X332206608Y-110472266D03*
X332206608Y-116372266D03*
X337206608Y-112672266D03*
X337706608Y-116372266D03*
X95406369Y-134991777D03*
X100906369Y-129091777D03*
X100906369Y-134991777D03*
X105906369Y-131291777D03*
X106406369Y-134991777D03*
X305206608Y-153611362D03*
X310706608Y-147711362D03*
X310706608Y-153611362D03*
X315706608Y-149911362D03*
X316206608Y-153611362D03*
X191906370Y-79133172D03*
X197406370Y-73233172D03*
X197406370Y-79133172D03*
X202406370Y-75433172D03*
X202906370Y-79133172D03*
X149156370Y-79133172D03*
X154656370Y-73233172D03*
X154656370Y-79133172D03*
X159656370Y-75433172D03*
X160156370Y-79133172D03*
X170656371Y-116372174D03*
X176156371Y-110472174D03*
X176156371Y-116372174D03*
X181156371Y-112672174D03*
X181656371Y-116372174D03*
X202906371Y-134991776D03*
X208406371Y-129091776D03*
X208406371Y-134991776D03*
X213406371Y-131291776D03*
X213906371Y-134991776D03*
X240706608Y-79133170D03*
X246206608Y-73233170D03*
X246206608Y-79133170D03*
X251206608Y-75433170D03*
X251706608Y-79133170D03*
X315956608Y-134991814D03*
X321456608Y-129091814D03*
X321456608Y-134991814D03*
X326456608Y-131291814D03*
X326956608Y-134991814D03*
X305206608Y-116372266D03*
X310706608Y-110472266D03*
X310706608Y-116372266D03*
X315706608Y-112672266D03*
X316206608Y-116372266D03*
X326581608Y-79133170D03*
X332081608Y-73233170D03*
X332081608Y-79133170D03*
X337081608Y-75433170D03*
X337581608Y-79133170D03*
X106156375Y-116372174D03*
X111656375Y-110472174D03*
X111656375Y-116372174D03*
X116656375Y-112672174D03*
X117156375Y-116372174D03*
X148906375Y-116372174D03*
X154406375Y-110472174D03*
X154406375Y-116372174D03*
X159406375Y-112672174D03*
X159906375Y-116372174D03*
X283706608Y-79133170D03*
X289206608Y-73233170D03*
X289206608Y-79133170D03*
X294206608Y-75433170D03*
X294706608Y-79133170D03*
X84406372Y-79133175D03*
X89906372Y-73233175D03*
X89906372Y-79133175D03*
X94906372Y-75433175D03*
X95406372Y-79133175D03*
X159906369Y-134991776D03*
X165406369Y-129091776D03*
X165406369Y-134991776D03*
X170406369Y-131291776D03*
X170906369Y-134991776D03*
X181406372Y-97752672D03*
X186906372Y-91852672D03*
X186906372Y-97752672D03*
X191906372Y-94052672D03*
X192406372Y-97752672D03*
X84656374Y-116372172D03*
X90156374Y-110472172D03*
X90156374Y-116372172D03*
X95156374Y-112672172D03*
X95656374Y-116372172D03*
X127656369Y-153611279D03*
X133156369Y-147711279D03*
X133156369Y-153611279D03*
X138156369Y-149911279D03*
X138656369Y-153611279D03*
X240706608Y-116372266D03*
X246206608Y-110472266D03*
X246206608Y-116372266D03*
X251206608Y-112672266D03*
X251706608Y-116372266D03*
X127406373Y-79133174D03*
X132906373Y-73233174D03*
X132906373Y-79133174D03*
X137906373Y-75433174D03*
X138406373Y-79133174D03*
X272831608Y-134991814D03*
X278331608Y-129091814D03*
X278331608Y-134991814D03*
X283331608Y-131291814D03*
X283831608Y-134991814D03*
X138406369Y-97752676D03*
X143906369Y-91852676D03*
X143906369Y-97752676D03*
X148906369Y-94052676D03*
X149406369Y-97752676D03*
X315956608Y-97752718D03*
X321456608Y-91852718D03*
X321456608Y-97752718D03*
X326456608Y-94052718D03*
X326956608Y-97752718D03*
X294206608Y-134991814D03*
X299706608Y-129091814D03*
X299706608Y-134991814D03*
X304706608Y-131291814D03*
X305206608Y-134991814D03*
X116906367Y-134991772D03*
X122406367Y-129091772D03*
X122406367Y-134991772D03*
X127406367Y-131291772D03*
X127906367Y-134991772D03*
X149156369Y-153611278D03*
X154656369Y-147711278D03*
X154656369Y-153611278D03*
X159656369Y-149911278D03*
X160156369Y-153611278D03*
X170656370Y-79133175D03*
X176156370Y-73233175D03*
X176156370Y-79133175D03*
X181156370Y-75433175D03*
X181656370Y-79133175D03*
X202906368Y-97752675D03*
X208406368Y-91852675D03*
X208406368Y-97752675D03*
X213406368Y-94052675D03*
X213906368Y-97752675D03*
X283706608Y-116372266D03*
X289206608Y-110472266D03*
X289206608Y-116372266D03*
X294206608Y-112672266D03*
X294706608Y-116372266D03*
X294456608Y-97752718D03*
X299956608Y-91852718D03*
X299956608Y-97752718D03*
X304956608Y-94052718D03*
X305456608Y-97752718D03*
X240706608Y-153611362D03*
X246206608Y-147711362D03*
X246206608Y-153611362D03*
X251206608Y-149911362D03*
X251706608Y-153611362D03*
X283706608Y-153611362D03*
X289206608Y-147711362D03*
X289206608Y-153611362D03*
X294206608Y-149911362D03*
X294706608Y-153611362D03*
X229706608Y-172230910D03*
X235206608Y-166330910D03*
X235206608Y-172230910D03*
X240206608Y-168530910D03*
X240706608Y-172230910D03*
X337456608Y-97752718D03*
X342956608Y-91852718D03*
X342956608Y-97752718D03*
X347956608Y-94052718D03*
X348456608Y-97752718D03*
X192156371Y-116372170D03*
X197656371Y-110472170D03*
X197656371Y-116372170D03*
X202656371Y-112672170D03*
X203156371Y-116372170D03*
X348206608Y-116372266D03*
X353706608Y-110472266D03*
X353706608Y-116372266D03*
X358706608Y-112672266D03*
X359206608Y-116372266D03*
X192156369Y-153611273D03*
X197656369Y-147711273D03*
X197656369Y-153611273D03*
X202656369Y-149911273D03*
X203156369Y-153611273D03*
X127656370Y-116372175D03*
X133156370Y-110472175D03*
X133156370Y-116372175D03*
X138156370Y-112672175D03*
X138656370Y-116372175D03*
X192156368Y-190850373D03*
X197656368Y-184950373D03*
X197656368Y-190850373D03*
X202656368Y-187150373D03*
X203156368Y-190850373D03*
X262206608Y-116372266D03*
X267706608Y-110472266D03*
X267706608Y-116372266D03*
X272706608Y-112672266D03*
X273206608Y-116372266D03*
X138406369Y-134991778D03*
X143906369Y-129091778D03*
X143906369Y-134991778D03*
X148906369Y-131291778D03*
X149406369Y-134991778D03*
X95406371Y-97752675D03*
X100906371Y-91852675D03*
X100906371Y-97752675D03*
X105906371Y-94052675D03*
X106406371Y-97752675D03*
X159906372Y-97752675D03*
X165406372Y-91852675D03*
X165406372Y-97752675D03*
X170406372Y-94052675D03*
X170906372Y-97752675D03*
X262206608Y-79133170D03*
X267706608Y-73233170D03*
X267706608Y-79133170D03*
X272706608Y-75433170D03*
X273206608Y-79133170D03*
X170406369Y-153611279D03*
X175906369Y-147711279D03*
X175906369Y-153611279D03*
X180906369Y-149911279D03*
X181406369Y-153611279D03*
X105906372Y-79133172D03*
X111406372Y-73233172D03*
X111406372Y-79133172D03*
X116406372Y-75433172D03*
X116906372Y-79133172D03*
X240581608Y-190850458D03*
X246081608Y-184950458D03*
X246081608Y-190850458D03*
X251081608Y-187150458D03*
X251581608Y-190850458D03*
X262206608Y-153611362D03*
X267706608Y-147711362D03*
X267706608Y-153611362D03*
X272706608Y-149911362D03*
X273206608Y-153611362D03*
X229956608Y-134991814D03*
X235456608Y-129091814D03*
X235456608Y-134991814D03*
X240456608Y-131291814D03*
X240956608Y-134991814D03*
X116656371Y-97752670D03*
X122156371Y-91852670D03*
X122156371Y-97752670D03*
X127156371Y-94052670D03*
X127656371Y-97752670D03*
M02*
