%TF.GenerationSoftware,KiCad,Pcbnew,7.0.9*%
%TF.CreationDate,2023-12-25T02:24:27+05:30*%
%TF.ProjectId,HiveKB,48697665-4b42-42e6-9b69-6361645f7063,rev?*%
%TF.SameCoordinates,Original*%
%TF.FileFunction,Profile,NP*%
%FSLAX46Y46*%
G04 Gerber Fmt 4.6, Leading zero omitted, Abs format (unit mm)*
G04 Created by KiCad (PCBNEW 7.0.9) date 2023-12-25 02:24:27*
%MOMM*%
%LPD*%
G01*
G04 APERTURE LIST*
%TA.AperFunction,Profile*%
%ADD10C,0.100000*%
%TD*%
%TA.AperFunction,Profile*%
%ADD11C,0.120000*%
%TD*%
G04 APERTURE END LIST*
D10*
X289081672Y-203263530D02*
X299831688Y-197057010D01*
X219081576Y-137391810D02*
X219031569Y-141198251D01*
X364331784Y-72926610D02*
X364331784Y-85339650D01*
X224531576Y-174630930D02*
X224581576Y-178437450D01*
X154531480Y-203263530D02*
X143781464Y-197057010D01*
X219031576Y-170200930D02*
X219031570Y-166024331D01*
X208281367Y-197056933D02*
X197531369Y-203263450D01*
X208281367Y-197056933D02*
X208281554Y-184643893D01*
X219081576Y-132591810D02*
X219031575Y-128785210D01*
X353581768Y-66720090D02*
X364331784Y-72926610D01*
X208281557Y-85339572D02*
X208281368Y-72926615D01*
X224581576Y-137021810D02*
X224581576Y-141198330D01*
X143781371Y-72926613D02*
X154531372Y-66720095D01*
X364331784Y-110165730D02*
X364331784Y-122578770D01*
X197531369Y-203263450D02*
X186781375Y-197056929D01*
X332081736Y-66720090D02*
X342831752Y-72926610D01*
X208281559Y-110165650D02*
X219031575Y-103959130D01*
X235331592Y-72926610D02*
X246081608Y-66720090D01*
X90031384Y-178437450D02*
X79281368Y-184643970D01*
X79281369Y-72926614D02*
X90031367Y-66720097D01*
X289081672Y-66720090D02*
X299831688Y-72926610D01*
X364331784Y-184643970D02*
X353581768Y-178437450D01*
X79281368Y-85339647D02*
X79281369Y-72926614D01*
X219031570Y-166024331D02*
X208281555Y-159817813D01*
X100781369Y-72926611D02*
X111531374Y-66720096D01*
X224581576Y-178437450D02*
X235331592Y-184643970D01*
X342831752Y-72926610D02*
X353581768Y-66720090D01*
X299831688Y-72926610D02*
X310581704Y-66720090D01*
X219031575Y-128785210D02*
X208281559Y-122578690D01*
X310581704Y-203263530D02*
X321331720Y-197057010D01*
X90031368Y-128785257D02*
X79281371Y-122578742D01*
X278331656Y-197057010D02*
X289081672Y-203263530D01*
X90031366Y-103959195D02*
X90031368Y-91546161D01*
X219031576Y-178437367D02*
X219031576Y-174260930D01*
X342831752Y-197057010D02*
X353581768Y-203263530D01*
X353581768Y-128785290D02*
X353581768Y-141198330D01*
X176031374Y-66720093D02*
X186781369Y-72926614D01*
X90031384Y-203263530D02*
X100781400Y-197057010D01*
X235331592Y-85339650D02*
X224581576Y-91546170D01*
X208281554Y-147404771D02*
X219031569Y-141198251D01*
X165281369Y-72926616D02*
X176031374Y-66720093D01*
X353581768Y-141198330D02*
X364331784Y-147404850D01*
X79281371Y-122578742D02*
X79281370Y-110165710D01*
X267581640Y-66720090D02*
X278331656Y-72926610D01*
X208281554Y-184643893D02*
X219031576Y-178437367D01*
X353581768Y-178437450D02*
X353581768Y-166024410D01*
X321331720Y-72926610D02*
X332081736Y-66720090D01*
X79281368Y-147404850D02*
X79281368Y-159817890D01*
X256831624Y-72926610D02*
X267581640Y-66720090D01*
X235331592Y-122578770D02*
X224581576Y-128785290D01*
X90031384Y-166024410D02*
X90031384Y-178437450D01*
X235331592Y-110165730D02*
X235331592Y-122578770D01*
X224581576Y-103959210D02*
X224531576Y-100152690D01*
X235331592Y-147404850D02*
X235331592Y-159817890D01*
X256831624Y-197057010D02*
X267581640Y-203263530D01*
X235331592Y-184643970D02*
X235331592Y-197057010D01*
X267581640Y-203263530D02*
X278331656Y-197057010D01*
X122281369Y-72926614D02*
X133031371Y-66720099D01*
X364331784Y-85339650D02*
X353581768Y-91546170D01*
X224581576Y-132961810D02*
X224581576Y-128785290D01*
X186781375Y-197056929D02*
X176031512Y-203263530D01*
X353581768Y-203263530D02*
X364331784Y-197057010D01*
X353581768Y-103959210D02*
X364331784Y-110165730D01*
X154531372Y-66720095D02*
X165281369Y-72926616D01*
X219031575Y-91546090D02*
X208281557Y-85339572D01*
X278331656Y-72926610D02*
X289081672Y-66720090D01*
X219031576Y-99782690D02*
X219031575Y-103959130D01*
X299831688Y-197057010D02*
X310581704Y-203263530D01*
X246081608Y-203263530D02*
X256831624Y-197057010D01*
X143781464Y-197057010D02*
X133031448Y-203263530D01*
X133031448Y-203263530D02*
X122281432Y-197057010D01*
X186781369Y-72926614D02*
X197531370Y-66720091D01*
X90031384Y-141198330D02*
X79281368Y-147404850D01*
X133031371Y-66720099D02*
X143781371Y-72926613D01*
X100781400Y-197057010D02*
X111531416Y-203263530D01*
X224531576Y-95352690D02*
X224581576Y-91546170D01*
X219031575Y-91546090D02*
X219031576Y-95722690D01*
X364331784Y-122578770D02*
X353581768Y-128785290D01*
X79281368Y-184643970D02*
X79281368Y-197057010D01*
X79281368Y-159817890D02*
X90031384Y-166024410D01*
X321331720Y-197057010D02*
X332081736Y-203263530D01*
X90031368Y-91546161D02*
X79281368Y-85339647D01*
X332081736Y-203263530D02*
X342831752Y-197057010D01*
X364331784Y-197057010D02*
X364331784Y-184643970D01*
X208281559Y-122578690D02*
X208281559Y-110165650D01*
X79281370Y-110165710D02*
X90031366Y-103959195D01*
X235331592Y-159817890D02*
X224581576Y-166024410D01*
X310581704Y-66720090D02*
X321331720Y-72926610D01*
X90031367Y-66720097D02*
X100781369Y-72926611D01*
X79281368Y-197057010D02*
X90031384Y-203263530D01*
X197531370Y-66720091D02*
X208281368Y-72926615D01*
X176031512Y-203263530D02*
X165281496Y-197057010D01*
X111531374Y-66720096D02*
X122281369Y-72926614D01*
X224581576Y-103959210D02*
X235331592Y-110165730D01*
X353581768Y-91546170D02*
X353581768Y-103959210D01*
X165281496Y-197057010D02*
X154531480Y-203263530D01*
X224581576Y-166024410D02*
X224531576Y-169830930D01*
X246081608Y-66720090D02*
X256831624Y-72926610D01*
X111531416Y-203263530D02*
X122281432Y-197057010D01*
X353581768Y-166024410D02*
X364331784Y-159817890D01*
X235331592Y-72926610D02*
X235331592Y-85339650D01*
X364331784Y-159817890D02*
X364331784Y-147404850D01*
X90031368Y-128785257D02*
X90031384Y-141198330D01*
X208281555Y-159817813D02*
X208281554Y-147404771D01*
X224581576Y-141198330D02*
X235331592Y-147404850D01*
X235331592Y-197057010D02*
X246081608Y-203263530D01*
%TO.C,MB5*%
X220581576Y-131091810D02*
X220581576Y-132591810D01*
X220581576Y-137391810D02*
X220581576Y-138891810D01*
X223081576Y-132961810D02*
X223081576Y-131091810D01*
X223081576Y-138891810D02*
X223081576Y-137021810D01*
X220581576Y-137391810D02*
G75*
G03*
X219081576Y-137391810I-750000J0D01*
G01*
X223081576Y-131091810D02*
G75*
G03*
X220581576Y-131091810I-1250000J0D01*
G01*
X219081576Y-132591810D02*
G75*
G03*
X220581576Y-132591810I750000J0D01*
G01*
X224581576Y-137021810D02*
G75*
G03*
X223081576Y-137021810I-750000J0D01*
G01*
X220581576Y-138891810D02*
G75*
G03*
X223081576Y-138891810I1250000J0D01*
G01*
X223081576Y-132961810D02*
G75*
G03*
X224581576Y-132961810I750000J0D01*
G01*
D11*
%TO.C,U1*%
X100230864Y-176860855D02*
X99189464Y-176860855D01*
X98503664Y-176175055D02*
X98503664Y-174574855D01*
X100916664Y-174574855D02*
X100916664Y-176175055D01*
X98884664Y-174193855D02*
X100535664Y-174193855D01*
X94515864Y-173685855D02*
X92839464Y-173685855D01*
X92153664Y-173000055D02*
X92153664Y-171323655D01*
X95201664Y-173000055D02*
X95201664Y-171323655D01*
X94515864Y-170637855D02*
X92839464Y-170637855D01*
X109755864Y-168605855D02*
X108155664Y-168605355D01*
X107774664Y-168224355D02*
X107774664Y-166573355D01*
X110441664Y-166878655D02*
X110441664Y-167920055D01*
X108155664Y-166192355D02*
X109755864Y-166192855D01*
X100916664Y-176175055D02*
G75*
G03*
X100230864Y-176860855I-247753J-438047D01*
G01*
X99189464Y-176860855D02*
G75*
G03*
X98503664Y-176175055I-438047J247753D01*
G01*
X98884664Y-174193855D02*
G75*
G03*
X98503664Y-174574855I-1J-380999D01*
G01*
X100916664Y-174574855D02*
G75*
G03*
X100535664Y-174193855I-380999J1D01*
G01*
X95201664Y-173000055D02*
G75*
G03*
X94515864Y-173685855I-247753J-438047D01*
G01*
X92839464Y-173685855D02*
G75*
G03*
X92153664Y-173000055I-438047J247753D01*
G01*
X94515864Y-170637855D02*
G75*
G03*
X95201664Y-171323655I438047J-247753D01*
G01*
X92153664Y-171323655D02*
G75*
G03*
X92839464Y-170637855I247750J438050D01*
G01*
X110441664Y-167920055D02*
G75*
G03*
X109755864Y-168605855I-247750J-438050D01*
G01*
X107774664Y-168224355D02*
G75*
G03*
X108155664Y-168605355I381000J0D01*
G01*
X109755864Y-166192855D02*
G75*
G03*
X110441664Y-166878655I438050J-247750D01*
G01*
X108155664Y-166192355D02*
G75*
G03*
X107774664Y-166573355I0J-381000D01*
G01*
%TO.C,U2*%
X343351188Y-167567925D02*
X344392588Y-167567925D01*
X345078388Y-168253725D02*
X345078388Y-169853925D01*
X342665388Y-169853925D02*
X342665388Y-168253725D01*
X344697388Y-170234925D02*
X343046388Y-170234925D01*
X349066188Y-170742925D02*
X350742588Y-170742925D01*
X351428388Y-171428725D02*
X351428388Y-173105125D01*
X348380388Y-171428725D02*
X348380388Y-173105125D01*
X349066188Y-173790925D02*
X350742588Y-173790925D01*
X333826188Y-175822925D02*
X335426388Y-175823425D01*
X335807388Y-176204425D02*
X335807388Y-177855425D01*
X333140388Y-177550125D02*
X333140388Y-176508725D01*
X335426388Y-178236425D02*
X333826188Y-178235925D01*
X342665388Y-168253725D02*
G75*
G03*
X343351188Y-167567925I247753J438047D01*
G01*
X344392588Y-167567925D02*
G75*
G03*
X345078388Y-168253725I438047J-247753D01*
G01*
X344697388Y-170234925D02*
G75*
G03*
X345078388Y-169853925I1J380999D01*
G01*
X342665388Y-169853925D02*
G75*
G03*
X343046388Y-170234925I380999J-1D01*
G01*
X348380388Y-171428725D02*
G75*
G03*
X349066188Y-170742925I247753J438047D01*
G01*
X350742588Y-170742925D02*
G75*
G03*
X351428388Y-171428725I438047J-247753D01*
G01*
X349066188Y-173790925D02*
G75*
G03*
X348380388Y-173105125I-438047J247753D01*
G01*
X351428388Y-173105125D02*
G75*
G03*
X350742588Y-173790925I-247750J-438050D01*
G01*
X333140388Y-176508725D02*
G75*
G03*
X333826188Y-175822925I247750J438050D01*
G01*
X335807388Y-176204425D02*
G75*
G03*
X335426388Y-175823425I-381000J0D01*
G01*
X333826188Y-178235925D02*
G75*
G03*
X333140388Y-177550125I-438050J247750D01*
G01*
X335426388Y-178236425D02*
G75*
G03*
X335807388Y-177855425I0J381000D01*
G01*
D10*
%TO.C,MB5*%
X223031576Y-176130930D02*
X223031576Y-174630930D01*
X223031576Y-169830930D02*
X223031576Y-168330930D01*
X220531576Y-174260930D02*
X220531576Y-176130930D01*
X220531576Y-168330930D02*
X220531576Y-170200930D01*
X223031576Y-169830930D02*
G75*
G03*
X224531576Y-169830930I750000J0D01*
G01*
X220531576Y-176130930D02*
G75*
G03*
X223031576Y-176130930I1250000J0D01*
G01*
X224531576Y-174630930D02*
G75*
G03*
X223031576Y-174630930I-750000J0D01*
G01*
X219031576Y-170200930D02*
G75*
G03*
X220531576Y-170200930I750000J0D01*
G01*
X223031576Y-168330930D02*
G75*
G03*
X220531576Y-168330930I-1250000J0D01*
G01*
X220531576Y-174260930D02*
G75*
G03*
X219031576Y-174260930I-750000J0D01*
G01*
X223031576Y-101652690D02*
X223031576Y-100152690D01*
X223031576Y-95352690D02*
X223031576Y-93852690D01*
X220531576Y-99782690D02*
X220531576Y-101652690D01*
X220531576Y-93852690D02*
X220531576Y-95722690D01*
X223031576Y-95352690D02*
G75*
G03*
X224531576Y-95352690I750000J0D01*
G01*
X220531576Y-101652690D02*
G75*
G03*
X223031576Y-101652690I1250000J0D01*
G01*
X224531576Y-100152690D02*
G75*
G03*
X223031576Y-100152690I-750000J0D01*
G01*
X219031576Y-95722690D02*
G75*
G03*
X220531576Y-95722690I750000J0D01*
G01*
X223031576Y-93852690D02*
G75*
G03*
X220531576Y-93852690I-1250000J0D01*
G01*
X220531576Y-99782690D02*
G75*
G03*
X219031576Y-99782690I-750000J0D01*
G01*
%TD*%
M02*
