%TF.GenerationSoftware,KiCad,Pcbnew,7.0.9*%
%TF.CreationDate,2023-12-25T02:24:28+05:30*%
%TF.ProjectId,HiveKB,48697665-4b42-42e6-9b69-6361645f7063,rev?*%
%TF.SameCoordinates,Original*%
%TF.FileFunction,Copper,L1,Top*%
%TF.FilePolarity,Positive*%
%FSLAX46Y46*%
G04 Gerber Fmt 4.6, Leading zero omitted, Abs format (unit mm)*
G04 Created by KiCad (PCBNEW 7.0.9) date 2023-12-25 02:24:28*
%MOMM*%
%LPD*%
G01*
G04 APERTURE LIST*
G04 Aperture macros list*
%AMRoundRect*
0 Rectangle with rounded corners*
0 $1 Rounding radius*
0 $2 $3 $4 $5 $6 $7 $8 $9 X,Y pos of 4 corners*
0 Add a 4 corners polygon primitive as box body*
4,1,4,$2,$3,$4,$5,$6,$7,$8,$9,$2,$3,0*
0 Add four circle primitives for the rounded corners*
1,1,$1+$1,$2,$3*
1,1,$1+$1,$4,$5*
1,1,$1+$1,$6,$7*
1,1,$1+$1,$8,$9*
0 Add four rect primitives between the rounded corners*
20,1,$1+$1,$2,$3,$4,$5,0*
20,1,$1+$1,$4,$5,$6,$7,0*
20,1,$1+$1,$6,$7,$8,$9,0*
20,1,$1+$1,$8,$9,$2,$3,0*%
G04 Aperture macros list end*
%TA.AperFunction,SMDPad,CuDef*%
%ADD10RoundRect,0.225000X0.225000X0.375000X-0.225000X0.375000X-0.225000X-0.375000X0.225000X-0.375000X0*%
%TD*%
%TA.AperFunction,ComponentPad*%
%ADD11C,4.700000*%
%TD*%
%TA.AperFunction,SMDPad,CuDef*%
%ADD12O,1.800000X2.750000*%
%TD*%
%TA.AperFunction,ComponentPad*%
%ADD13C,1.397000*%
%TD*%
%TA.AperFunction,SMDPad,CuDef*%
%ADD14R,1.000000X1.550000*%
%TD*%
%TA.AperFunction,SMDPad,CuDef*%
%ADD15R,0.800000X1.000000*%
%TD*%
%TA.AperFunction,SMDPad,CuDef*%
%ADD16R,1.500000X0.700000*%
%TD*%
%TA.AperFunction,ViaPad*%
%ADD17C,0.800000*%
%TD*%
%TA.AperFunction,Conductor*%
%ADD18C,0.250000*%
%TD*%
%ADD19C,0.350000*%
G04 APERTURE END LIST*
D10*
%TO.P,D36,1,K*%
%TO.N,ROW1_R*%
X355356608Y-84133170D03*
%TO.P,D36,2,A*%
%TO.N,Net-(D36-A)*%
X352056608Y-84133170D03*
%TD*%
%TO.P,D5,1,K*%
%TO.N,ROW1_L*%
X177806371Y-84133174D03*
%TO.P,D5,2,A*%
%TO.N,Net-(D5-A)*%
X174506371Y-84133174D03*
%TD*%
%TO.P,D52,1,K*%
%TO.N,ROW4_R*%
X301356608Y-139991814D03*
%TO.P,D52,2,A*%
%TO.N,Net-(D52-A)*%
X298056608Y-139991814D03*
%TD*%
%TO.P,D37,1,K*%
%TO.N,ROW2_R*%
X237106608Y-102752718D03*
%TO.P,D37,2,A*%
%TO.N,Net-(D37-A)*%
X233806608Y-102752718D03*
%TD*%
%TO.P,D46,1,K*%
%TO.N,ROW3_R*%
X312356608Y-121372266D03*
%TO.P,D46,2,A*%
%TO.N,Net-(D46-A)*%
X309056608Y-121372266D03*
%TD*%
%TO.P,D44,1,K*%
%TO.N,ROW3_R*%
X269356608Y-121372266D03*
%TO.P,D44,2,A*%
%TO.N,Net-(D44-A)*%
X266056608Y-121372266D03*
%TD*%
%TO.P,D3,1,K*%
%TO.N,ROW1_L*%
X134556374Y-84133172D03*
%TO.P,D3,2,A*%
%TO.N,Net-(D3-A)*%
X131256374Y-84133172D03*
%TD*%
%TO.P,D53,1,K*%
%TO.N,ROW4_R*%
X323106608Y-139991814D03*
%TO.P,D53,2,A*%
%TO.N,Net-(D53-A)*%
X319806608Y-139991814D03*
%TD*%
%TO.P,D55,1,K*%
%TO.N,ROW5_R*%
X247731608Y-195850458D03*
%TO.P,D55,2,A*%
%TO.N,Net-(D55-A)*%
X244431608Y-195850458D03*
%TD*%
D11*
%TO.P,,1*%
%TO.N,N/C*%
X256831976Y-122578830D03*
%TD*%
%TO.P,,1*%
%TO.N,N/C*%
X342832104Y-85339710D03*
%TD*%
D10*
%TO.P,D23,1,K*%
%TO.N,ROW4_L*%
X188556368Y-139991777D03*
%TO.P,D23,2,A*%
%TO.N,Net-(D23-A)*%
X185256368Y-139991777D03*
%TD*%
D11*
%TO.P,,1*%
%TO.N,N/C*%
X90031384Y-190850490D03*
%TD*%
D10*
%TO.P,D6,1,K*%
%TO.N,ROW1_L*%
X199056370Y-84133172D03*
%TO.P,D6,2,A*%
%TO.N,Net-(D6-A)*%
X195756370Y-84133172D03*
%TD*%
%TO.P,D1,1,K*%
%TO.N,ROW1_L*%
X91556372Y-84133175D03*
%TO.P,D1,2,A*%
%TO.N,Net-(D1-A)*%
X88256372Y-84133175D03*
%TD*%
%TO.P,D25,1,K*%
%TO.N,ROW5_L*%
X134806371Y-158611275D03*
%TO.P,D25,2,A*%
%TO.N,Net-(D25-A)*%
X131506371Y-158611275D03*
%TD*%
%TO.P,D42,1,K*%
%TO.N,ROW2_R*%
X344606608Y-102752718D03*
%TO.P,D42,2,A*%
%TO.N,Net-(D42-A)*%
X341306608Y-102752718D03*
%TD*%
D11*
%TO.P,,1*%
%TO.N,N/C*%
X300167978Y-85339710D03*
%TD*%
%TO.P,,1*%
%TO.N,N/C*%
X353582120Y-190850550D03*
%TD*%
D10*
%TO.P,D58,1,K*%
%TO.N,ROW5_R*%
X269356608Y-158611362D03*
%TO.P,D58,2,A*%
%TO.N,Net-(D58-A)*%
X266056608Y-158611362D03*
%TD*%
%TO.P,D60,1,K*%
%TO.N,ROW5_R*%
X312356608Y-158611362D03*
%TO.P,D60,2,A*%
%TO.N,Net-(D60-A)*%
X309056608Y-158611362D03*
%TD*%
D11*
%TO.P,,1*%
%TO.N,N/C*%
X186906368Y-85646263D03*
%TD*%
D10*
%TO.P,D34,1,K*%
%TO.N,ROW1_R*%
X312356608Y-84133170D03*
%TO.P,D34,2,A*%
%TO.N,Net-(D34-A)*%
X309056608Y-84133170D03*
%TD*%
%TO.P,D41,1,K*%
%TO.N,ROW2_R*%
X323106608Y-102752718D03*
%TO.P,D41,2,A*%
%TO.N,Net-(D41-A)*%
X319806608Y-102752718D03*
%TD*%
%TO.P,D18,1,K*%
%TO.N,ROW3_L*%
X199306373Y-121372170D03*
%TO.P,D18,2,A*%
%TO.N,Net-(D18-A)*%
X196006373Y-121372170D03*
%TD*%
%TO.P,D4,1,K*%
%TO.N,ROW1_L*%
X156306370Y-84133172D03*
%TO.P,D4,2,A*%
%TO.N,Net-(D4-A)*%
X153006370Y-84133172D03*
%TD*%
%TO.P,D40,1,K*%
%TO.N,ROW2_R*%
X301606608Y-102752718D03*
%TO.P,D40,2,A*%
%TO.N,Net-(D40-A)*%
X298306608Y-102752718D03*
%TD*%
%TO.P,D9,1,K*%
%TO.N,ROW2_L*%
X145556369Y-102752674D03*
%TO.P,D9,2,A*%
%TO.N,Net-(D9-A)*%
X142256369Y-102752674D03*
%TD*%
%TO.P,D33,1,K*%
%TO.N,ROW1_R*%
X290856608Y-84133170D03*
%TO.P,D33,2,A*%
%TO.N,Net-(D33-A)*%
X287556608Y-84133170D03*
%TD*%
%TO.P,D28,1,K*%
%TO.N,ROW5_L*%
X199306369Y-158611273D03*
%TO.P,D28,2,A*%
%TO.N,Net-(D28-A)*%
X196006369Y-158611273D03*
%TD*%
%TO.P,D20,1,K*%
%TO.N,ROW4_L*%
X124056371Y-139991775D03*
%TO.P,D20,2,A*%
%TO.N,Net-(D20-A)*%
X120756371Y-139991775D03*
%TD*%
D11*
%TO.P,,1*%
%TO.N,N/C*%
X256831976Y-172230990D03*
%TD*%
D10*
%TO.P,D54,1,K*%
%TO.N,ROW4_R*%
X344606608Y-139991814D03*
%TO.P,D54,2,A*%
%TO.N,Net-(D54-A)*%
X341306608Y-139991814D03*
%TD*%
%TO.P,D50,1,K*%
%TO.N,ROW4_R*%
X258606608Y-139991814D03*
%TO.P,D50,2,A*%
%TO.N,Net-(D50-A)*%
X255306608Y-139991814D03*
%TD*%
%TO.P,D10,1,K*%
%TO.N,ROW2_L*%
X167056372Y-102752675D03*
%TO.P,D10,2,A*%
%TO.N,Net-(D10-A)*%
X163756372Y-102752675D03*
%TD*%
%TO.P,D7,1,K*%
%TO.N,ROW2_L*%
X102556371Y-102752675D03*
%TO.P,D7,2,A*%
%TO.N,Net-(D7-A)*%
X99256371Y-102752675D03*
%TD*%
D11*
%TO.P,,1*%
%TO.N,N/C*%
X90031384Y-153611370D03*
%TD*%
D10*
%TO.P,D2,1,K*%
%TO.N,ROW1_L*%
X113056367Y-84133167D03*
%TO.P,D2,2,A*%
%TO.N,Net-(D2-A)*%
X109756367Y-84133167D03*
%TD*%
%TO.P,D26,1,K*%
%TO.N,ROW5_L*%
X156306369Y-158611278D03*
%TO.P,D26,2,A*%
%TO.N,Net-(D26-A)*%
X153006369Y-158611278D03*
%TD*%
%TO.P,D49,1,K*%
%TO.N,ROW4_R*%
X237106608Y-139991814D03*
%TO.P,D49,2,A*%
%TO.N,Net-(D49-A)*%
X233806608Y-139991814D03*
%TD*%
%TO.P,D38,1,K*%
%TO.N,ROW2_R*%
X258606608Y-102752718D03*
%TO.P,D38,2,A*%
%TO.N,Net-(D38-A)*%
X255306608Y-102752718D03*
%TD*%
%TO.P,D19,1,K*%
%TO.N,ROW4_L*%
X102556369Y-139991776D03*
%TO.P,D19,2,A*%
%TO.N,Net-(D19-A)*%
X99256369Y-139991776D03*
%TD*%
D11*
%TO.P,,1*%
%TO.N,N/C*%
X257167914Y-85339710D03*
%TD*%
D10*
%TO.P,D12,1,K*%
%TO.N,ROW2_L*%
X210056374Y-102752674D03*
%TO.P,D12,2,A*%
%TO.N,Net-(D12-A)*%
X206756374Y-102752674D03*
%TD*%
%TO.P,D17,1,K*%
%TO.N,ROW3_L*%
X177806371Y-121372174D03*
%TO.P,D17,2,A*%
%TO.N,Net-(D17-A)*%
X174506371Y-121372174D03*
%TD*%
%TO.P,D39,1,K*%
%TO.N,ROW2_R*%
X280106608Y-102752718D03*
%TO.P,D39,2,A*%
%TO.N,Net-(D39-A)*%
X276806608Y-102752718D03*
%TD*%
%TO.P,D16,1,K*%
%TO.N,ROW3_L*%
X156056374Y-121372172D03*
%TO.P,D16,2,A*%
%TO.N,Net-(D16-A)*%
X152756374Y-121372172D03*
%TD*%
D11*
%TO.P,,1*%
%TO.N,N/C*%
X143906369Y-85646266D03*
%TD*%
%TO.P,,1*%
%TO.N,N/C*%
X353582120Y-153611430D03*
%TD*%
D10*
%TO.P,D22,1,K*%
%TO.N,ROW4_L*%
X167056369Y-139991776D03*
%TO.P,D22,2,A*%
%TO.N,Net-(D22-A)*%
X163756369Y-139991776D03*
%TD*%
%TO.P,D11,1,K*%
%TO.N,ROW2_L*%
X188556372Y-102752670D03*
%TO.P,D11,2,A*%
%TO.N,Net-(D11-A)*%
X185256372Y-102752670D03*
%TD*%
D12*
%TO.P,U1,1,PA02_A0_D0*%
%TO.N,ROW1_L*%
X93359664Y-180256815D03*
%TO.P,U1,2,PA4_A1_D1*%
%TO.N,COL1_L*%
X95899664Y-180256815D03*
%TO.P,U1,3,PA10_A2_D2*%
%TO.N,COL2_L*%
X98439664Y-180256815D03*
%TO.P,U1,4,PA11_A3_D3*%
%TO.N,COL3_L*%
X100979664Y-180256815D03*
%TO.P,U1,5,PA8_A4_D4_SDA*%
%TO.N,COL4_L*%
X103519664Y-180256815D03*
%TO.P,U1,6,PA9_A5_D5_SCL*%
%TO.N,COL5_L*%
X106059664Y-180256815D03*
%TO.P,U1,7,PB08_A6_D6_TX*%
%TO.N,COL6_L*%
X108599664Y-180256815D03*
%TO.P,U1,8,PB09_A7_D7_RX*%
%TO.N,ROW5_L*%
X108599664Y-164066895D03*
%TO.P,U1,9,PA7_A8_D8_SCK*%
%TO.N,ROW4_L*%
X106059664Y-164066895D03*
%TO.P,U1,10,PA5_A9_D9_MISO*%
%TO.N,ROW3_L*%
X103519664Y-164066895D03*
%TO.P,U1,11,PA6_A10_D10_MOSI*%
%TO.N,ROW2_L*%
X100979664Y-164066895D03*
%TO.P,U1,12,3V3*%
%TO.N,unconnected-(U1-3V3-Pad12)*%
X98439664Y-164066895D03*
%TO.P,U1,13,GND*%
%TO.N,unconnected-(U1-GND-Pad13)*%
X95899664Y-164066895D03*
%TO.P,U1,14,5V*%
%TO.N,unconnected-(U1-5V-Pad14)*%
X93359664Y-164066895D03*
D13*
%TO.P,U1,15,NFC+*%
%TO.N,unconnected-(U1-NFC+-Pad15)*%
X92407664Y-173431855D03*
%TO.P,U1,16,NFC-*%
%TO.N,unconnected-(U1-NFC--Pad16)*%
X92407664Y-170891855D03*
%TO.P,U1,17,PA31_SWDIO*%
%TO.N,Net-(U1-PA31_SWDIO)*%
X94947664Y-173431855D03*
%TO.P,U1,18,PA30_SWCLK*%
%TO.N,Net-(U1-PA30_SWCLK)*%
X94947664Y-170891855D03*
%TO.P,U1,19,RESET*%
%TO.N,unconnected-(U1-RESET-Pad19)*%
X100662664Y-176606855D03*
%TO.P,U1,20,GND*%
%TO.N,unconnected-(U1-GND-Pad20)*%
X98757664Y-176606855D03*
%TO.P,U1,21,BAT-*%
%TO.N,Net-(SW2-B)*%
X110187664Y-168351855D03*
%TO.P,U1,22,BAT+*%
%TO.N,Net-(BT2-+)*%
X110187664Y-166446855D03*
%TD*%
D10*
%TO.P,D57,1,K*%
%TO.N,ROW5_R*%
X247856608Y-158611362D03*
%TO.P,D57,2,A*%
%TO.N,Net-(D57-A)*%
X244556608Y-158611362D03*
%TD*%
%TO.P,D32,1,K*%
%TO.N,ROW1_R*%
X269356608Y-84133170D03*
%TO.P,D32,2,A*%
%TO.N,Net-(D32-A)*%
X266056608Y-84133170D03*
%TD*%
D12*
%TO.P,U2,1,PA02_A0_D0*%
%TO.N,COL1_R*%
X350222388Y-164171965D03*
%TO.P,U2,2,PA4_A1_D1*%
%TO.N,COL2_R*%
X347682388Y-164171965D03*
%TO.P,U2,3,PA10_A2_D2*%
%TO.N,COL3_R*%
X345142388Y-164171965D03*
%TO.P,U2,4,PA11_A3_D3*%
%TO.N,COL4_R*%
X342602388Y-164171965D03*
%TO.P,U2,5,PA8_A4_D4_SDA*%
%TO.N,COL5_R*%
X340062388Y-164171965D03*
%TO.P,U2,6,PA9_A5_D5_SCL*%
%TO.N,COL6_R*%
X337522388Y-164171965D03*
%TO.P,U2,7,PB08_A6_D6_TX*%
%TO.N,ROW1_R*%
X334982388Y-164171965D03*
%TO.P,U2,8,PB09_A7_D7_RX*%
%TO.N,ROW2_R*%
X334982388Y-180361885D03*
%TO.P,U2,9,PA7_A8_D8_SCK*%
%TO.N,ROW3_R*%
X337522388Y-180361885D03*
%TO.P,U2,10,PA5_A9_D9_MISO*%
%TO.N,ROW4_R*%
X340062388Y-180361885D03*
%TO.P,U2,11,PA6_A10_D10_MOSI*%
%TO.N,ROW5_R*%
X342602388Y-180361885D03*
%TO.P,U2,12,3V3*%
%TO.N,unconnected-(U2-3V3-Pad12)*%
X345142388Y-180361885D03*
%TO.P,U2,13,GND*%
%TO.N,unconnected-(U2-GND-Pad13)*%
X347682388Y-180361885D03*
%TO.P,U2,14,5V*%
%TO.N,unconnected-(U2-5V-Pad14)*%
X350222388Y-180361885D03*
D13*
%TO.P,U2,15,NFC+*%
%TO.N,unconnected-(U2-NFC+-Pad15)*%
X351174388Y-170996925D03*
%TO.P,U2,16,NFC-*%
%TO.N,unconnected-(U2-NFC--Pad16)*%
X351174388Y-173536925D03*
%TO.P,U2,17,PA31_SWDIO*%
%TO.N,Net-(U2-PA31_SWDIO)*%
X348634388Y-170996925D03*
%TO.P,U2,18,PA30_SWCLK*%
%TO.N,Net-(U2-PA30_SWCLK)*%
X348634388Y-173536925D03*
%TO.P,U2,19,RESET*%
%TO.N,unconnected-(U2-RESET-Pad19)*%
X342919388Y-167821925D03*
%TO.P,U2,20,GND*%
%TO.N,unconnected-(U2-GND-Pad20)*%
X344824388Y-167821925D03*
%TO.P,U2,21,BAT-*%
%TO.N,Net-(SW4-B)*%
X333394388Y-176076925D03*
%TO.P,U2,22,BAT+*%
%TO.N,Net-(BT4-+)*%
X333394388Y-177981925D03*
%TD*%
D11*
%TO.P,,1*%
%TO.N,N/C*%
X100906370Y-85646263D03*
%TD*%
%TO.P,,1*%
%TO.N,N/C*%
X342832104Y-122578830D03*
%TD*%
D14*
%TO.P,SW1,1*%
%TO.N,Net-(U1-PA31_SWDIO)*%
X81087624Y-156236370D03*
X81087624Y-150986370D03*
%TO.P,SW1,2*%
%TO.N,Net-(U1-PA30_SWCLK)*%
X82787624Y-156236370D03*
X82787624Y-150986370D03*
%TD*%
D10*
%TO.P,D35,1,K*%
%TO.N,ROW1_R*%
X333731608Y-84133170D03*
%TO.P,D35,2,A*%
%TO.N,Net-(D35-A)*%
X330431608Y-84133170D03*
%TD*%
%TO.P,D48,1,K*%
%TO.N,ROW3_R*%
X355356608Y-121372266D03*
%TO.P,D48,2,A*%
%TO.N,Net-(D48-A)*%
X352056608Y-121372266D03*
%TD*%
%TO.P,D24,1,K*%
%TO.N,ROW4_L*%
X210056371Y-139991776D03*
%TO.P,D24,2,A*%
%TO.N,Net-(D24-A)*%
X206756371Y-139991776D03*
%TD*%
%TO.P,D45,1,K*%
%TO.N,ROW3_R*%
X290856608Y-121372266D03*
%TO.P,D45,2,A*%
%TO.N,Net-(D45-A)*%
X287556608Y-121372266D03*
%TD*%
%TO.P,D29,1,K*%
%TO.N,ROW5_L*%
X210056368Y-177230877D03*
%TO.P,D29,2,A*%
%TO.N,Net-(D29-A)*%
X206756368Y-177230877D03*
%TD*%
D15*
%TO.P,SW2,*%
%TO.N,*%
X82163244Y-186971415D03*
X79953244Y-186971415D03*
X82163244Y-194271415D03*
X79953244Y-194271415D03*
D16*
%TO.P,SW2,1,A*%
%TO.N,Net-(BT1-+)*%
X82813244Y-188371415D03*
%TO.P,SW2,2,B*%
%TO.N,Net-(SW2-B)*%
X82813244Y-191371415D03*
%TO.P,SW2,3*%
%TO.N,N/C*%
X82813244Y-192871415D03*
%TD*%
D10*
%TO.P,D47,1,K*%
%TO.N,ROW3_R*%
X333856608Y-121372266D03*
%TO.P,D47,2,A*%
%TO.N,Net-(D47-A)*%
X330556608Y-121372266D03*
%TD*%
%TO.P,D59,1,K*%
%TO.N,ROW5_R*%
X290856608Y-158611362D03*
%TO.P,D59,2,A*%
%TO.N,Net-(D59-A)*%
X287556608Y-158611362D03*
%TD*%
%TO.P,D13,1,K*%
%TO.N,ROW3_L*%
X91806374Y-121372174D03*
%TO.P,D13,2,A*%
%TO.N,Net-(D13-A)*%
X88506374Y-121372174D03*
%TD*%
%TO.P,D56,1,K*%
%TO.N,ROW5_R*%
X236856608Y-177230910D03*
%TO.P,D56,2,A*%
%TO.N,Net-(D56-A)*%
X233556608Y-177230910D03*
%TD*%
%TO.P,D43,1,K*%
%TO.N,ROW3_R*%
X247856608Y-121372266D03*
%TO.P,D43,2,A*%
%TO.N,Net-(D43-A)*%
X244556608Y-121372266D03*
%TD*%
%TO.P,D31,1,K*%
%TO.N,ROW1_R*%
X247856608Y-84133170D03*
%TO.P,D31,2,A*%
%TO.N,Net-(D31-A)*%
X244556608Y-84133170D03*
%TD*%
D15*
%TO.P,SW4,*%
%TO.N,*%
X361274916Y-194271415D03*
X363484916Y-194271415D03*
X361274916Y-186971415D03*
X363484916Y-186971415D03*
D16*
%TO.P,SW4,1,A*%
%TO.N,Net-(BT3-+)*%
X360624916Y-192871415D03*
%TO.P,SW4,2,B*%
%TO.N,Net-(SW4-B)*%
X360624916Y-189871415D03*
%TO.P,SW4,3*%
%TO.N,N/C*%
X360624916Y-188371415D03*
%TD*%
D10*
%TO.P,D30,1,K*%
%TO.N,ROW5_L*%
X199306371Y-195850372D03*
%TO.P,D30,2,A*%
%TO.N,Net-(D30-A)*%
X196006371Y-195850372D03*
%TD*%
D11*
%TO.P,,1*%
%TO.N,N/C*%
X186781528Y-172230930D03*
%TD*%
D10*
%TO.P,D21,1,K*%
%TO.N,ROW4_L*%
X145556369Y-139991778D03*
%TO.P,D21,2,A*%
%TO.N,Net-(D21-A)*%
X142256369Y-139991778D03*
%TD*%
D14*
%TO.P,SW3,1*%
%TO.N,Net-(U2-PA30_SWCLK)*%
X362497413Y-150688815D03*
X362497413Y-155938815D03*
%TO.P,SW3,2*%
%TO.N,Net-(U2-PA31_SWDIO)*%
X360797413Y-150688815D03*
X360797413Y-155938815D03*
%TD*%
D10*
%TO.P,D15,1,K*%
%TO.N,ROW3_L*%
X134806370Y-121372175D03*
%TO.P,D15,2,A*%
%TO.N,Net-(D15-A)*%
X131506370Y-121372175D03*
%TD*%
D11*
%TO.P,,1*%
%TO.N,N/C*%
X143906367Y-123273338D03*
%TD*%
%TO.P,,1*%
%TO.N,N/C*%
X186906367Y-123273339D03*
%TD*%
%TO.P,,1*%
%TO.N,N/C*%
X300167978Y-122578830D03*
%TD*%
D10*
%TO.P,D51,1,K*%
%TO.N,ROW4_R*%
X279981608Y-139991814D03*
%TO.P,D51,2,A*%
%TO.N,Net-(D51-A)*%
X276681608Y-139991814D03*
%TD*%
%TO.P,D14,1,K*%
%TO.N,ROW3_L*%
X113306376Y-121372175D03*
%TO.P,D14,2,A*%
%TO.N,Net-(D14-A)*%
X110006376Y-121372175D03*
%TD*%
%TO.P,D8,1,K*%
%TO.N,ROW2_L*%
X123806371Y-102752672D03*
%TO.P,D8,2,A*%
%TO.N,Net-(D8-A)*%
X120506371Y-102752672D03*
%TD*%
%TO.P,D27,1,K*%
%TO.N,ROW5_L*%
X177556371Y-158611275D03*
%TO.P,D27,2,A*%
%TO.N,Net-(D27-A)*%
X174256371Y-158611275D03*
%TD*%
D11*
%TO.P,,1*%
%TO.N,N/C*%
X100906369Y-123273339D03*
%TD*%
D17*
%TO.N,Net-(D1-A)*%
X86672004Y-79133130D03*
%TO.N,Net-(D3-A)*%
X129672068Y-79133130D03*
%TO.N,Net-(D5-A)*%
X173344008Y-79133130D03*
%TO.N,Net-(D11-A)*%
X184094024Y-97752690D03*
%TO.N,Net-(D13-A)*%
X87343880Y-116372250D03*
%TO.N,Net-(D15-A)*%
X130343944Y-116372250D03*
%TO.N,Net-(D17-A)*%
X173344008Y-116372250D03*
%TO.N,Net-(D19-A)*%
X98093896Y-134991810D03*
%TO.N,Net-(D21-A)*%
X141093960Y-134991810D03*
%TO.N,Net-(D23-A)*%
X184094024Y-134991810D03*
%TO.N,Net-(D25-A)*%
X130343944Y-153611370D03*
%TO.N,Net-(D27-A)*%
X172672132Y-153611370D03*
%TO.N,Net-(D29-A)*%
X205594056Y-172230930D03*
%TO.N,Net-(D7-A)*%
X98093896Y-97752690D03*
%TO.N,Net-(D10-A)*%
X162593992Y-97752690D03*
%TO.N,Net-(D2-A)*%
X108172036Y-79133130D03*
%TO.N,Net-(D4-A)*%
X151843976Y-79133130D03*
%TO.N,Net-(D6-A)*%
X194172164Y-79133130D03*
%TO.N,Net-(D8-A)*%
X118922052Y-97752690D03*
%TO.N,Net-(D9-A)*%
X141093960Y-97752690D03*
%TO.N,Net-(D12-A)*%
X205594056Y-97752690D03*
%TO.N,Net-(D14-A)*%
X108843912Y-116372250D03*
%TO.N,Net-(D16-A)*%
X151172100Y-116372250D03*
%TO.N,Net-(D18-A)*%
X194844040Y-116372250D03*
%TO.N,Net-(D20-A)*%
X119593928Y-134991810D03*
%TO.N,Net-(D22-A)*%
X162593992Y-134991810D03*
%TO.N,Net-(D24-A)*%
X205594056Y-134991810D03*
%TO.N,Net-(D26-A)*%
X151843976Y-153611370D03*
%TO.N,Net-(D28-A)*%
X194844040Y-153611370D03*
%TO.N,Net-(D30-A)*%
X194844040Y-190850490D03*
%TO.N,ROW1_L*%
X92718888Y-138870885D03*
X91375136Y-178437450D03*
%TO.N,ROW2_L*%
X100781400Y-166800225D03*
X98093896Y-143525775D03*
%TO.N,ROW3_L*%
X100781400Y-143525775D03*
X103468904Y-166800225D03*
%TO.N,ROW4_L*%
X106156408Y-166800225D03*
X104812656Y-143525775D03*
%TO.N,ROW5_L*%
X110187664Y-164472780D03*
X131687696Y-155938815D03*
%TO.N,COL1_L*%
X110187664Y-170679300D03*
%TO.N,COL2_L*%
X110187664Y-172230930D03*
%TO.N,COL3_L*%
X110187664Y-173782560D03*
%TO.N,COL4_L*%
X110187664Y-175334190D03*
%TO.N,COL5_L*%
X206265932Y-155938815D03*
X206265932Y-146629035D03*
X110187664Y-176885820D03*
%TO.N,COL6_L*%
X110187664Y-178437450D03*
%TO.N,Net-(BT3-+)*%
X360125536Y-194729565D03*
%TO.N,ROW1_R*%
X351391148Y-137319255D03*
X333250496Y-165248595D03*
%TO.N,Net-(D31-A)*%
X243219112Y-79133130D03*
%TO.N,Net-(D32-A)*%
X264719144Y-79133130D03*
%TO.N,Net-(D33-A)*%
X286219176Y-79133130D03*
%TO.N,Net-(D34-A)*%
X307719208Y-79133130D03*
%TO.N,Net-(D35-A)*%
X329219240Y-79133130D03*
%TO.N,Net-(D36-A)*%
X350719272Y-79133130D03*
%TO.N,ROW2_R*%
X357460348Y-122601086D03*
X333250496Y-179989080D03*
%TO.N,Net-(D37-A)*%
X232469096Y-97752690D03*
%TO.N,Net-(D38-A)*%
X253969128Y-97752690D03*
%TO.N,Net-(D39-A)*%
X275469160Y-97752690D03*
%TO.N,Net-(D40-A)*%
X296969192Y-97752690D03*
%TO.N,Net-(D41-A)*%
X318469224Y-97752690D03*
%TO.N,Net-(D42-A)*%
X339969256Y-97752690D03*
%TO.N,ROW3_R*%
X337281752Y-177661635D03*
X348703644Y-142749960D03*
%TO.N,Net-(D43-A)*%
X243219112Y-116372250D03*
%TO.N,Net-(D44-A)*%
X264719144Y-116372250D03*
%TO.N,Net-(D45-A)*%
X286219176Y-116372250D03*
%TO.N,Net-(D46-A)*%
X307719208Y-116372250D03*
%TO.N,Net-(D47-A)*%
X329219240Y-116372250D03*
%TO.N,Net-(D48-A)*%
X350719272Y-116372250D03*
%TO.N,ROW4_R*%
X337281752Y-176110005D03*
X347359892Y-142749960D03*
%TO.N,Net-(D49-A)*%
X232469096Y-134991810D03*
%TO.N,Net-(D50-A)*%
X253969128Y-134991810D03*
%TO.N,Net-(D51-A)*%
X275469160Y-134991810D03*
%TO.N,Net-(D52-A)*%
X296969192Y-134991810D03*
%TO.N,Net-(D53-A)*%
X318469224Y-134991810D03*
%TO.N,Net-(D54-A)*%
X339969256Y-134991810D03*
%TO.N,ROW5_R*%
X337281752Y-174558375D03*
X316453596Y-159042075D03*
%TO.N,Net-(D55-A)*%
X243219112Y-190850490D03*
%TO.N,Net-(D56-A)*%
X232469096Y-172230930D03*
%TO.N,Net-(D57-A)*%
X243219112Y-153611370D03*
%TO.N,Net-(D58-A)*%
X264719144Y-153611370D03*
%TO.N,Net-(D59-A)*%
X286219176Y-153611370D03*
%TO.N,Net-(D60-A)*%
X307719208Y-153611370D03*
%TO.N,COL1_R*%
X333250496Y-174558375D03*
%TO.N,COL2_R*%
X333250496Y-173006745D03*
%TO.N,COL3_R*%
X333250496Y-171455115D03*
%TO.N,COL4_R*%
X333250496Y-169903485D03*
%TO.N,COL5_R*%
X333250496Y-168351855D03*
%TO.N,COL6_R*%
X333250496Y-166800225D03*
%TO.N,Net-(U2-PA31_SWDIO)*%
X361469288Y-152059740D03*
%TO.N,Net-(SW4-B)*%
X362485414Y-193505561D03*
%TO.N,Net-(U2-PA30_SWCLK)*%
X361469288Y-154387185D03*
%TO.N,Net-(U1-PA31_SWDIO)*%
X90650636Y-165248595D03*
X81968872Y-154610873D03*
%TO.N,Net-(U1-PA30_SWCLK)*%
X81968872Y-152835555D03*
%TO.N,Net-(BT1-+)*%
X83312624Y-186971415D03*
X110912664Y-179213265D03*
X110859540Y-171455115D03*
%TO.N,Net-(SW2-B)*%
X83312624Y-190074675D03*
%TO.N,Net-(BT2-+)*%
X106828284Y-169903485D03*
%TD*%
D18*
%TO.N,ROW4_R*%
X338473323Y-143525775D02*
X341072647Y-143525775D01*
X341072647Y-143525775D02*
X344606608Y-139991814D01*
X334939363Y-139991814D02*
X338473323Y-143525775D01*
X323106608Y-139991814D02*
X334939363Y-139991814D01*
%TO.N,Net-(D1-A)*%
X86672004Y-82548807D02*
X88256372Y-84133175D01*
X86672004Y-79133130D02*
X86672004Y-82548807D01*
%TO.N,Net-(D3-A)*%
X129672068Y-79133130D02*
X129672068Y-82548866D01*
X129672068Y-82548866D02*
X131256374Y-84133172D01*
%TO.N,Net-(D5-A)*%
X173344008Y-82970811D02*
X174506371Y-84133174D01*
X173344008Y-79133130D02*
X173344008Y-82970811D01*
%TO.N,Net-(D11-A)*%
X184094024Y-101590322D02*
X185256372Y-102752670D01*
X184094024Y-97752690D02*
X184094024Y-101590322D01*
%TO.N,Net-(D13-A)*%
X87343880Y-116372250D02*
X87343880Y-120209680D01*
X87343880Y-120209680D02*
X88506374Y-121372174D01*
%TO.N,Net-(D15-A)*%
X130343944Y-116372250D02*
X130343944Y-120209749D01*
X130343944Y-120209749D02*
X131506370Y-121372175D01*
%TO.N,Net-(D17-A)*%
X173344008Y-116372250D02*
X173344008Y-120209811D01*
X173344008Y-120209811D02*
X174506371Y-121372174D01*
%TO.N,Net-(D19-A)*%
X98093896Y-134991810D02*
X98093896Y-138829303D01*
X98093896Y-138829303D02*
X99256369Y-139991776D01*
%TO.N,Net-(D21-A)*%
X141093960Y-134991810D02*
X141093960Y-138829369D01*
X141093960Y-138829369D02*
X142256369Y-139991778D01*
%TO.N,Net-(D23-A)*%
X184094024Y-138829433D02*
X185256368Y-139991777D01*
X184094024Y-134991810D02*
X184094024Y-138829433D01*
%TO.N,Net-(D25-A)*%
X130343944Y-157448848D02*
X131506371Y-158611275D01*
X130343944Y-153611370D02*
X130343944Y-157448848D01*
%TO.N,Net-(D27-A)*%
X174256371Y-158611275D02*
X172672132Y-157027036D01*
X172672132Y-157027036D02*
X172672132Y-153611370D01*
%TO.N,Net-(D29-A)*%
X205594056Y-172230930D02*
X205594056Y-176068565D01*
X205594056Y-176068565D02*
X206756368Y-177230877D01*
%TO.N,Net-(D7-A)*%
X98093896Y-97752690D02*
X98093896Y-101590200D01*
X98093896Y-101590200D02*
X99256371Y-102752675D01*
%TO.N,Net-(D10-A)*%
X162593992Y-101590295D02*
X163756372Y-102752675D01*
X162593992Y-97752690D02*
X162593992Y-101590295D01*
%TO.N,Net-(D2-A)*%
X108172036Y-79133130D02*
X108172036Y-82548836D01*
X108172036Y-82548836D02*
X109756367Y-84133167D01*
%TO.N,Net-(D4-A)*%
X151843976Y-79133130D02*
X151843976Y-82970778D01*
X151843976Y-82970778D02*
X153006370Y-84133172D01*
%TO.N,Net-(D6-A)*%
X194172164Y-82548966D02*
X195756370Y-84133172D01*
X194172164Y-79133130D02*
X194172164Y-82548966D01*
%TO.N,Net-(D8-A)*%
X118922052Y-97752690D02*
X118922052Y-101168353D01*
X118922052Y-101168353D02*
X120506371Y-102752672D01*
%TO.N,Net-(D9-A)*%
X141093960Y-97752690D02*
X141093960Y-101590265D01*
X141093960Y-101590265D02*
X142256369Y-102752674D01*
%TO.N,Net-(D12-A)*%
X205594056Y-101590356D02*
X206756374Y-102752674D01*
X205594056Y-97752690D02*
X205594056Y-101590356D01*
%TO.N,Net-(D14-A)*%
X108843912Y-120209711D02*
X110006376Y-121372175D01*
X108843912Y-116372250D02*
X108843912Y-120209711D01*
%TO.N,Net-(D16-A)*%
X151172100Y-116372250D02*
X151172100Y-119787898D01*
X151172100Y-119787898D02*
X152756374Y-121372172D01*
%TO.N,Net-(D18-A)*%
X194844040Y-120209837D02*
X196006373Y-121372170D01*
X194844040Y-116372250D02*
X194844040Y-120209837D01*
%TO.N,Net-(D20-A)*%
X119593928Y-134991810D02*
X119593928Y-138829332D01*
X119593928Y-138829332D02*
X120756371Y-139991775D01*
%TO.N,Net-(D22-A)*%
X162593992Y-138829399D02*
X163756369Y-139991776D01*
X162593992Y-134991810D02*
X162593992Y-138829399D01*
%TO.N,Net-(D24-A)*%
X205594056Y-138829461D02*
X206756371Y-139991776D01*
X205594056Y-134991810D02*
X205594056Y-138829461D01*
%TO.N,Net-(D26-A)*%
X151843976Y-157448885D02*
X153006369Y-158611278D01*
X151843976Y-153611370D02*
X151843976Y-157448885D01*
%TO.N,Net-(D28-A)*%
X194844040Y-153611370D02*
X194844040Y-157448944D01*
X194844040Y-157448944D02*
X196006369Y-158611273D01*
%TO.N,Net-(D30-A)*%
X194844040Y-194688041D02*
X196006371Y-195850372D01*
X194844040Y-190850490D02*
X194844040Y-194688041D01*
%TO.N,ROW1_L*%
X95866107Y-88442910D02*
X108746624Y-88442910D01*
X130246636Y-88442910D02*
X134556374Y-84133172D01*
X173496635Y-88442910D02*
X177806371Y-84133174D01*
X194868279Y-88321263D02*
X199056370Y-84133172D01*
X181994460Y-88321263D02*
X194868279Y-88321263D01*
X90703260Y-104735025D02*
X81968872Y-113469413D01*
X152118276Y-88321266D02*
X156306370Y-84133172D01*
X156306370Y-84133172D02*
X160616108Y-88442910D01*
X81968872Y-119275087D02*
X92150951Y-129457166D01*
X117366110Y-88442910D02*
X130246636Y-88442910D01*
X93359664Y-180421978D02*
X91375136Y-178437450D01*
X134556374Y-84133172D02*
X138744468Y-88321266D01*
X92718888Y-138870885D02*
X92718888Y-130025103D01*
X95866107Y-88442910D02*
X90703260Y-93605757D01*
X160616108Y-88442910D02*
X173496635Y-88442910D01*
X93359664Y-180731815D02*
X93359664Y-180421978D01*
X91556372Y-84133175D02*
X95866107Y-88442910D01*
X92718888Y-130025103D02*
X92150951Y-129457166D01*
X81968872Y-113469413D02*
X81968872Y-119275087D01*
X113056367Y-84133167D02*
X117366110Y-88442910D01*
X108746624Y-88442910D02*
X113056367Y-84133167D01*
X177806371Y-84133174D02*
X181994460Y-88321263D01*
X90703260Y-93605757D02*
X90703260Y-104735025D01*
X138744468Y-88321266D02*
X152118276Y-88321266D01*
%TO.N,ROW2_L*%
X100979664Y-163591895D02*
X100979664Y-166601961D01*
X102556371Y-102752675D02*
X106866166Y-107062470D01*
X192866172Y-107062470D02*
X205746578Y-107062470D01*
X100979664Y-166601961D02*
X100781400Y-166800225D01*
X123806371Y-102752672D02*
X128116169Y-107062470D01*
X205746578Y-107062470D02*
X210056374Y-102752674D01*
X128116169Y-107062470D02*
X141246573Y-107062470D01*
X82418872Y-113655809D02*
X89012211Y-107062470D01*
X188556372Y-102752670D02*
X192866172Y-107062470D01*
X162746577Y-107062470D02*
X167056372Y-102752675D01*
X82418872Y-119088691D02*
X82418872Y-113655809D01*
X141246573Y-107062470D02*
X145556369Y-102752674D01*
X167056372Y-102752675D02*
X171366167Y-107062470D01*
X94081369Y-130751188D02*
X82418872Y-119088691D01*
X171366167Y-107062470D02*
X184246572Y-107062470D01*
X145556369Y-102752674D02*
X149866165Y-107062470D01*
X89012211Y-107062470D02*
X106866166Y-107062470D01*
X94081369Y-139513248D02*
X94081369Y-130751188D01*
X149866165Y-107062470D02*
X162746577Y-107062470D01*
X106866166Y-107062470D02*
X119496573Y-107062470D01*
X119496573Y-107062470D02*
X123806371Y-102752672D01*
X98093896Y-143525775D02*
X94081369Y-139513248D01*
X184246572Y-107062470D02*
X188556372Y-102752670D01*
%TO.N,ROW3_L*%
X103519664Y-166749465D02*
X103468904Y-166800225D01*
X156056374Y-121372172D02*
X160366232Y-125682030D01*
X97368896Y-140113271D02*
X97368896Y-126934696D01*
X108730212Y-125948339D02*
X113306376Y-121372175D01*
X139382533Y-125948338D02*
X151480208Y-125948338D01*
X97368896Y-126934696D02*
X96382539Y-125948339D01*
X160366232Y-125682030D02*
X173496515Y-125682030D01*
X173496515Y-125682030D02*
X177806371Y-121372174D01*
X151480208Y-125948338D02*
X156056374Y-121372172D01*
X96382539Y-125948339D02*
X108730212Y-125948339D01*
X103519664Y-163591895D02*
X103468904Y-163541135D01*
X130496515Y-125682030D02*
X134806370Y-121372175D01*
X194730204Y-125948339D02*
X199306373Y-121372170D01*
X117616231Y-125682030D02*
X130496515Y-125682030D01*
X134806370Y-121372175D02*
X139382533Y-125948338D01*
X177806371Y-121372174D02*
X182382536Y-125948339D01*
X182382536Y-125948339D02*
X194730204Y-125948339D01*
X91806374Y-121372174D02*
X96382539Y-125948339D01*
X100781400Y-143525775D02*
X97368896Y-140113271D01*
X113306376Y-121372175D02*
X117616231Y-125682030D01*
X103519664Y-163591895D02*
X103519664Y-166749465D01*
%TO.N,ROW4_L*%
X171366183Y-144301590D02*
X184246555Y-144301590D01*
X104812656Y-143525775D02*
X104812656Y-143421836D01*
X184246555Y-144301590D02*
X188556368Y-139991777D01*
X106059664Y-166703481D02*
X106059664Y-163591895D01*
X192866181Y-144301590D02*
X188556368Y-139991777D01*
X102556369Y-139991776D02*
X105314553Y-142749960D01*
X145556369Y-139991778D02*
X149866181Y-144301590D01*
X106828284Y-142749960D02*
X109931544Y-139646700D01*
X104812656Y-143421836D02*
X105484532Y-142749960D01*
X210056371Y-139991776D02*
X205746557Y-144301590D01*
X167056369Y-139991776D02*
X171366183Y-144301590D01*
X113547044Y-139646700D02*
X116650304Y-142749960D01*
X128366186Y-144301590D02*
X141246557Y-144301590D01*
X106156408Y-166800225D02*
X106059664Y-166703481D01*
X141246557Y-144301590D02*
X145556369Y-139991778D01*
X205746557Y-144301590D02*
X192866181Y-144301590D01*
X105314553Y-142749960D02*
X105484532Y-142749960D01*
X109931544Y-139646700D02*
X113547044Y-139646700D01*
X116650304Y-142749960D02*
X121298186Y-142749960D01*
X162746555Y-144301590D02*
X167056369Y-139991776D01*
X105484532Y-142749960D02*
X106828284Y-142749960D01*
X124056371Y-139991775D02*
X128366186Y-144301590D01*
X149866181Y-144301590D02*
X162746555Y-144301590D01*
X121298186Y-142749960D02*
X124056371Y-139991775D01*
%TO.N,ROW5_L*%
X201266050Y-195850372D02*
X207609684Y-189506738D01*
X213784628Y-177013880D02*
X213567631Y-177230877D01*
X131687696Y-155938815D02*
X132133911Y-155938815D01*
X199306371Y-195850372D02*
X201266050Y-195850372D01*
X203338418Y-158611273D02*
X207648295Y-162921150D01*
X199306369Y-158611273D02*
X203338418Y-158611273D01*
X192156536Y-161369520D02*
X196548122Y-161369520D01*
X207648295Y-162921150D02*
X212361058Y-162921150D01*
X108599664Y-163591895D02*
X108599664Y-164924906D01*
X156306369Y-158611278D02*
X167642142Y-158611278D01*
X110187664Y-164472780D02*
X109480549Y-164472780D01*
X148900352Y-161369520D02*
X153548127Y-161369520D01*
X170400384Y-161369520D02*
X174798126Y-161369520D01*
X132133911Y-155938815D02*
X134806371Y-158611275D01*
X217015948Y-173782560D02*
X213784628Y-177013880D01*
X109480549Y-164472780D02*
X108599664Y-163591895D01*
X153548127Y-161369520D02*
X156306369Y-158611278D01*
X167642142Y-158611278D02*
X170400384Y-161369520D01*
X213567631Y-177230877D02*
X210056368Y-177230877D01*
X212361058Y-162921150D02*
X217015948Y-167576040D01*
X196548122Y-161369520D02*
X199306369Y-158611273D01*
X217015948Y-167576040D02*
X217015948Y-173782560D01*
X134806371Y-158611275D02*
X146142107Y-158611275D01*
X207609684Y-189506738D02*
X207609684Y-183188824D01*
X207609684Y-183188824D02*
X213784628Y-177013880D01*
X174798126Y-161369520D02*
X177556371Y-158611275D01*
X189398291Y-158611275D02*
X192156536Y-161369520D01*
X177556371Y-158611275D02*
X189398291Y-158611275D01*
X146142107Y-158611275D02*
X148900352Y-161369520D01*
%TO.N,COL1_L*%
X95899664Y-180731815D02*
X95899664Y-176831571D01*
X95899664Y-176831571D02*
X102051935Y-170679300D01*
X102051935Y-170679300D02*
X110187664Y-170679300D01*
%TO.N,COL2_L*%
X106798137Y-172230930D02*
X110187664Y-172230930D01*
X98439664Y-180731815D02*
X98439664Y-180589403D01*
X98439664Y-180589403D02*
X106798137Y-172230930D01*
%TO.N,COL3_L*%
X100979664Y-180731815D02*
X100979664Y-180589403D01*
X100979664Y-180589403D02*
X107786507Y-173782560D01*
X107786507Y-173782560D02*
X110187664Y-173782560D01*
%TO.N,COL4_L*%
X103519664Y-180731815D02*
X103519664Y-180589403D01*
X108774877Y-175334190D02*
X110187664Y-175334190D01*
X103519664Y-180589403D02*
X108774877Y-175334190D01*
%TO.N,COL5_L*%
X106059664Y-180731815D02*
X106059664Y-180589403D01*
X109763247Y-176885820D02*
X110187664Y-176885820D01*
X206265932Y-155938815D02*
X206265932Y-148436785D01*
X206265932Y-148436785D02*
X206265932Y-146629035D01*
X106059664Y-180589403D02*
X109763247Y-176885820D01*
%TO.N,COL6_L*%
X108599664Y-180731815D02*
X108599664Y-180025450D01*
X108599664Y-180025450D02*
X110187664Y-178437450D01*
%TO.N,Net-(BT3-+)*%
X360125536Y-194729565D02*
X360125536Y-193370795D01*
X360125536Y-193370795D02*
X360624916Y-192871415D01*
%TO.N,ROW1_R*%
X308475068Y-88014710D02*
X312356608Y-84133170D01*
X333731608Y-84133170D02*
X337613148Y-88014710D01*
X362141164Y-119089466D02*
X362141164Y-110941545D01*
X247856608Y-84133170D02*
X251738148Y-88014710D01*
X356766156Y-108614100D02*
X351475068Y-103323012D01*
X294738148Y-88014710D02*
X308475068Y-88014710D01*
X359813719Y-108614100D02*
X356766156Y-108614100D01*
X312356608Y-84133170D02*
X316666348Y-88442910D01*
X333250496Y-165248595D02*
X333430758Y-165248595D01*
X265475068Y-88014710D02*
X269356608Y-84133170D01*
X351475068Y-88014710D02*
X355356608Y-84133170D01*
X269356608Y-84133170D02*
X273666348Y-88442910D01*
X333430758Y-165248595D02*
X334982388Y-163696965D01*
X316666348Y-88442910D02*
X329421868Y-88442910D01*
X286546868Y-88442910D02*
X290856608Y-84133170D01*
X251738148Y-88014710D02*
X265475068Y-88014710D01*
X351391148Y-129839482D02*
X362141164Y-119089466D01*
X329421868Y-88442910D02*
X333731608Y-84133170D01*
X362141164Y-110941545D02*
X359813719Y-108614100D01*
X337613148Y-88014710D02*
X351475068Y-88014710D01*
X351475068Y-103323012D02*
X351475068Y-88014710D01*
X273666348Y-88442910D02*
X286546868Y-88442910D01*
X290856608Y-84133170D02*
X294738148Y-88014710D01*
X351391148Y-137319255D02*
X351391148Y-129839482D01*
%TO.N,Net-(D31-A)*%
X243219112Y-79133130D02*
X243219112Y-82795674D01*
X243219112Y-82795674D02*
X244556608Y-84133170D01*
%TO.N,Net-(D32-A)*%
X264719144Y-82795706D02*
X266056608Y-84133170D01*
X264719144Y-79133130D02*
X264719144Y-82795706D01*
%TO.N,Net-(D33-A)*%
X286219176Y-82795738D02*
X287556608Y-84133170D01*
X286219176Y-79133130D02*
X286219176Y-82795738D01*
%TO.N,Net-(D34-A)*%
X307719208Y-82795770D02*
X309056608Y-84133170D01*
X307719208Y-79133130D02*
X307719208Y-82795770D01*
%TO.N,Net-(D35-A)*%
X329219240Y-79133130D02*
X329219240Y-82920802D01*
X329219240Y-82920802D02*
X330431608Y-84133170D01*
%TO.N,Net-(D36-A)*%
X350719272Y-82795834D02*
X352056608Y-84133170D01*
X350719272Y-79133130D02*
X350719272Y-82795834D01*
%TO.N,ROW2_R*%
X341672671Y-106286655D02*
X344606608Y-103352718D01*
X326531736Y-106286655D02*
X341672671Y-106286655D01*
X280106608Y-102752718D02*
X283531672Y-106177782D01*
X258606608Y-102752718D02*
X262031640Y-106177750D01*
X346869347Y-106286655D02*
X341672671Y-106286655D01*
X334982388Y-180836885D02*
X334098301Y-180836885D01*
X357460348Y-122601086D02*
X357460348Y-116877656D01*
X323106608Y-102752718D02*
X326531736Y-106177846D01*
X283531672Y-106286655D02*
X298072671Y-106286655D01*
X276572671Y-106286655D02*
X280106608Y-102752718D01*
X305031704Y-106286655D02*
X319572671Y-106286655D01*
X262031640Y-106286655D02*
X276572671Y-106286655D01*
X344606608Y-103352718D02*
X344606608Y-102752718D01*
X334098301Y-180836885D02*
X333250496Y-179989080D01*
X301606608Y-102861559D02*
X305031704Y-106286655D01*
X319572671Y-106286655D02*
X323106608Y-102752718D01*
X237106608Y-102752718D02*
X240640545Y-106286655D01*
X240640545Y-106286655D02*
X255072671Y-106286655D01*
X255072671Y-106286655D02*
X258606608Y-102752718D01*
X357460348Y-116877656D02*
X346869347Y-106286655D01*
X326531736Y-106177846D02*
X326531736Y-106286655D01*
X283531672Y-106177782D02*
X283531672Y-106286655D01*
X298072671Y-106286655D02*
X301606608Y-102752718D01*
X301606608Y-102752718D02*
X301606608Y-102861559D01*
X262031640Y-106177750D02*
X262031640Y-106286655D01*
%TO.N,Net-(D37-A)*%
X232469096Y-101415206D02*
X233806608Y-102752718D01*
X232469096Y-97752690D02*
X232469096Y-101415206D01*
%TO.N,Net-(D38-A)*%
X253969128Y-97752690D02*
X253969128Y-101415238D01*
X253969128Y-101415238D02*
X255306608Y-102752718D01*
%TO.N,Net-(D39-A)*%
X275469160Y-97752690D02*
X275469160Y-101415270D01*
X275469160Y-101415270D02*
X276806608Y-102752718D01*
%TO.N,Net-(D40-A)*%
X296969192Y-101415302D02*
X298306608Y-102752718D01*
X296969192Y-97752690D02*
X296969192Y-101415302D01*
%TO.N,Net-(D41-A)*%
X318469224Y-101415334D02*
X319806608Y-102752718D01*
X318469224Y-97752690D02*
X318469224Y-101415334D01*
%TO.N,Net-(D42-A)*%
X339969256Y-101415366D02*
X341306608Y-102752718D01*
X339969256Y-97752690D02*
X339969256Y-101415366D01*
%TO.N,ROW3_R*%
X337281752Y-177661635D02*
X337522388Y-177902271D01*
X329546844Y-125682030D02*
X333856608Y-121372266D01*
X347359892Y-125253830D02*
X351475044Y-125253830D01*
X251738172Y-125253830D02*
X265475044Y-125253830D01*
X269356608Y-121372266D02*
X273666372Y-125682030D01*
X316666372Y-125682030D02*
X329546844Y-125682030D01*
X345344264Y-139390580D02*
X345344264Y-127269458D01*
X290856608Y-121372266D02*
X294738172Y-125253830D01*
X351475044Y-125253830D02*
X355356608Y-121372266D01*
X337522388Y-177902271D02*
X337522388Y-180836885D01*
X337738172Y-125253830D02*
X347359892Y-125253830D01*
X286546844Y-125682030D02*
X290856608Y-121372266D01*
X308475044Y-125253830D02*
X312356608Y-121372266D01*
X345344264Y-127269458D02*
X347359892Y-125253830D01*
X312356608Y-121372266D02*
X316666372Y-125682030D01*
X294738172Y-125253830D02*
X308475044Y-125253830D01*
X273666372Y-125682030D02*
X286546844Y-125682030D01*
X265475044Y-125253830D02*
X269356608Y-121372266D01*
X333856608Y-121372266D02*
X337738172Y-125253830D01*
X348703644Y-142749960D02*
X345344264Y-139390580D01*
X247856608Y-121372266D02*
X251738172Y-125253830D01*
%TO.N,Net-(D43-A)*%
X243219112Y-120034770D02*
X244556608Y-121372266D01*
X243219112Y-116372250D02*
X243219112Y-120034770D01*
%TO.N,Net-(D44-A)*%
X264719144Y-116372250D02*
X264719144Y-120034802D01*
X264719144Y-120034802D02*
X266056608Y-121372266D01*
%TO.N,Net-(D45-A)*%
X286219176Y-116372250D02*
X286219176Y-120034834D01*
X286219176Y-120034834D02*
X287556608Y-121372266D01*
%TO.N,Net-(D46-A)*%
X307719208Y-116372250D02*
X307719208Y-120034866D01*
X307719208Y-120034866D02*
X309056608Y-121372266D01*
%TO.N,Net-(D47-A)*%
X329219240Y-116372250D02*
X329219240Y-120034898D01*
X329219240Y-120034898D02*
X330556608Y-121372266D01*
%TO.N,Net-(D48-A)*%
X350719272Y-116372250D02*
X350719272Y-120034930D01*
X350719272Y-120034930D02*
X352056608Y-121372266D01*
%TO.N,ROW4_R*%
X337427303Y-176110005D02*
X340062388Y-178745090D01*
X258606608Y-139991814D02*
X262140569Y-143525775D01*
X340062388Y-178745090D02*
X340062388Y-180836885D01*
X297822647Y-143525775D02*
X301356608Y-139991814D01*
X283515569Y-143525775D02*
X297822647Y-143525775D01*
X337281752Y-176110005D02*
X337427303Y-176110005D01*
X347359892Y-142745098D02*
X344606608Y-139991814D01*
X276447647Y-143525775D02*
X276141036Y-143525775D01*
X255072647Y-143525775D02*
X258606608Y-139991814D01*
X240531608Y-143525775D02*
X255072647Y-143525775D01*
X347359892Y-142749960D02*
X347359892Y-142745098D01*
X240531608Y-143416814D02*
X240531608Y-143525775D01*
X237106608Y-139991814D02*
X240531608Y-143416814D01*
X301356608Y-139991814D02*
X304890569Y-143525775D01*
X304890569Y-143525775D02*
X319572647Y-143525775D01*
X279981608Y-139991814D02*
X276447647Y-143525775D01*
X279981608Y-139991814D02*
X283515569Y-143525775D01*
X262140569Y-143525775D02*
X276141036Y-143525775D01*
X319572647Y-143525775D02*
X323106608Y-139991814D01*
%TO.N,Net-(D49-A)*%
X232469096Y-134991810D02*
X232469096Y-138654302D01*
X232469096Y-138654302D02*
X233806608Y-139991814D01*
%TO.N,Net-(D50-A)*%
X253969128Y-138654334D02*
X255306608Y-139991814D01*
X253969128Y-134991810D02*
X253969128Y-138654334D01*
%TO.N,Net-(D51-A)*%
X275469160Y-134991810D02*
X275469160Y-138779366D01*
X275469160Y-138779366D02*
X276681608Y-139991814D01*
%TO.N,Net-(D52-A)*%
X296969192Y-134991810D02*
X296969192Y-138904398D01*
X296969192Y-138904398D02*
X298056608Y-139991814D01*
%TO.N,Net-(D53-A)*%
X318469224Y-134991810D02*
X318469224Y-138654430D01*
X318469224Y-138654430D02*
X319806608Y-139991814D01*
%TO.N,Net-(D54-A)*%
X339969256Y-134991810D02*
X339969256Y-138654462D01*
X339969256Y-138654462D02*
X341306608Y-139991814D01*
%TO.N,ROW5_R*%
X243890988Y-162576982D02*
X247856608Y-158611362D01*
X290856608Y-158611362D02*
X302945422Y-158611362D01*
X240442638Y-177230910D02*
X243890988Y-173782560D01*
X244921456Y-198660610D02*
X242239147Y-198660610D01*
X337281752Y-174558375D02*
X337953628Y-174558375D01*
X316022883Y-158611362D02*
X316453596Y-159042075D01*
X236856608Y-193278071D02*
X236856608Y-177230910D01*
X259945358Y-158611362D02*
X262703516Y-161369520D01*
X266598450Y-161369520D02*
X269356608Y-158611362D01*
X309598450Y-161369520D02*
X312356608Y-158611362D01*
X288098450Y-161369520D02*
X290856608Y-158611362D01*
X262703516Y-161369520D02*
X266598450Y-161369520D01*
X337953628Y-174558375D02*
X342602388Y-179207135D01*
X242239147Y-198660610D02*
X236856608Y-193278071D01*
X247731608Y-195850458D02*
X244921456Y-198660610D01*
X305703580Y-161369520D02*
X309598450Y-161369520D01*
X243890988Y-173782560D02*
X243890988Y-162576982D01*
X302945422Y-158611362D02*
X305703580Y-161369520D01*
X269356608Y-158611362D02*
X281445390Y-158611362D01*
X281445390Y-158611362D02*
X284203548Y-161369520D01*
X247856608Y-158611362D02*
X259945358Y-158611362D01*
X312356608Y-158611362D02*
X316022883Y-158611362D01*
X342602388Y-179207135D02*
X342602388Y-180836885D01*
X284203548Y-161369520D02*
X288098450Y-161369520D01*
X236856608Y-177230910D02*
X240442638Y-177230910D01*
%TO.N,Net-(D55-A)*%
X243219112Y-194637962D02*
X244431608Y-195850458D01*
X243219112Y-190850490D02*
X243219112Y-194637962D01*
%TO.N,Net-(D56-A)*%
X232469096Y-172230930D02*
X232469096Y-176143398D01*
X232469096Y-176143398D02*
X233556608Y-177230910D01*
%TO.N,Net-(D57-A)*%
X243219112Y-153611370D02*
X243219112Y-157273866D01*
X243219112Y-157273866D02*
X244556608Y-158611362D01*
%TO.N,Net-(D58-A)*%
X264719144Y-153611370D02*
X264719144Y-157273898D01*
X264719144Y-157273898D02*
X266056608Y-158611362D01*
%TO.N,Net-(D59-A)*%
X286219176Y-157273930D02*
X287556608Y-158611362D01*
X286219176Y-153611370D02*
X286219176Y-157273930D01*
%TO.N,Net-(D60-A)*%
X307719208Y-157273962D02*
X309056608Y-158611362D01*
X307719208Y-153611370D02*
X307719208Y-157273962D01*
%TO.N,COL1_R*%
X343792634Y-173782560D02*
X350222388Y-167352806D01*
X350222388Y-167352806D02*
X350222388Y-163696965D01*
X333250496Y-174558375D02*
X334026311Y-173782560D01*
X334026311Y-173782560D02*
X343792634Y-173782560D01*
%TO.N,COL2_R*%
X343048666Y-172230930D02*
X347682388Y-167597208D01*
X334026311Y-172230930D02*
X343048666Y-172230930D01*
X333250496Y-173006745D02*
X334026311Y-172230930D01*
X347682388Y-167597208D02*
X347682388Y-163696965D01*
%TO.N,COL3_R*%
X334026311Y-170679300D02*
X338302465Y-170679300D01*
X333250496Y-171455115D02*
X334026311Y-170679300D01*
X345142388Y-163839377D02*
X345142388Y-163696965D01*
X338302465Y-170679300D02*
X345142388Y-163839377D01*
%TO.N,COL4_R*%
X336538280Y-169903485D02*
X333250496Y-169903485D01*
X342602388Y-163696965D02*
X342602388Y-163839377D01*
X342602388Y-163839377D02*
X336538280Y-169903485D01*
%TO.N,COL5_R*%
X335549910Y-168351855D02*
X340062388Y-163839377D01*
X333250496Y-168351855D02*
X335549910Y-168351855D01*
X340062388Y-163839377D02*
X340062388Y-163696965D01*
%TO.N,COL6_R*%
X333250496Y-166800225D02*
X334561540Y-166800225D01*
X334561540Y-166800225D02*
X337522388Y-163839377D01*
X337522388Y-163839377D02*
X337522388Y-163696965D01*
%TO.N,Net-(U2-PA31_SWDIO)*%
X361469288Y-152059740D02*
X360797413Y-151387865D01*
X360797413Y-151387865D02*
X360797413Y-150688815D01*
%TO.N,Net-(SW4-B)*%
X362485414Y-193505561D02*
X363484916Y-192506059D01*
X361955711Y-189871415D02*
X360624916Y-189871415D01*
X363484916Y-192506059D02*
X363484916Y-191400620D01*
X363484916Y-191400620D02*
X361955711Y-189871415D01*
%TO.N,Net-(U2-PA30_SWCLK)*%
X362497413Y-155415310D02*
X362497413Y-155938815D01*
X361469288Y-154387185D02*
X362497413Y-155415310D01*
%TO.N,Net-(U1-PA31_SWDIO)*%
X94947664Y-173431855D02*
X93924164Y-174455355D01*
X91983716Y-174455355D02*
X90650636Y-173122275D01*
X90650636Y-173122275D02*
X90650636Y-165248595D01*
X93924164Y-174455355D02*
X91983716Y-174455355D01*
X81968872Y-155355122D02*
X81968872Y-154610873D01*
X81087624Y-156236370D02*
X81968872Y-155355122D01*
%TO.N,Net-(U1-PA30_SWCLK)*%
X81968872Y-152835555D02*
X81968872Y-151805122D01*
X81968872Y-151805122D02*
X82787624Y-150986370D01*
%TO.N,Net-(BT1-+)*%
X83312624Y-186971415D02*
X83312624Y-187872035D01*
X110912664Y-179213265D02*
X110912664Y-171508239D01*
X83312624Y-187872035D02*
X82813244Y-188371415D01*
X110912664Y-171508239D02*
X110859540Y-171455115D01*
%TO.N,Net-(SW2-B)*%
X82813244Y-190574055D02*
X83312624Y-190074675D01*
X82813244Y-191371415D02*
X82813244Y-190574055D01*
%TO.N,Net-(BT2-+)*%
X109765219Y-166024410D02*
X110187664Y-166446855D01*
X106828284Y-169903485D02*
X106828284Y-167172451D01*
X106828284Y-167172451D02*
X107976325Y-166024410D01*
X107976325Y-166024410D02*
X109765219Y-166024410D01*
%TD*%
D19*
X86672004Y-79133130D03*
X129672068Y-79133130D03*
X173344008Y-79133130D03*
X184094024Y-97752690D03*
X87343880Y-116372250D03*
X130343944Y-116372250D03*
X173344008Y-116372250D03*
X98093896Y-134991810D03*
X141093960Y-134991810D03*
X184094024Y-134991810D03*
X130343944Y-153611370D03*
X172672132Y-153611370D03*
X205594056Y-172230930D03*
X98093896Y-97752690D03*
X162593992Y-97752690D03*
X108172036Y-79133130D03*
X151843976Y-79133130D03*
X194172164Y-79133130D03*
X118922052Y-97752690D03*
X141093960Y-97752690D03*
X205594056Y-97752690D03*
X108843912Y-116372250D03*
X151172100Y-116372250D03*
X194844040Y-116372250D03*
X119593928Y-134991810D03*
X162593992Y-134991810D03*
X205594056Y-134991810D03*
X151843976Y-153611370D03*
X194844040Y-153611370D03*
X194844040Y-190850490D03*
X92718888Y-138870885D03*
X91375136Y-178437450D03*
X100781400Y-166800225D03*
X98093896Y-143525775D03*
X100781400Y-143525775D03*
X103468904Y-166800225D03*
X106156408Y-166800225D03*
X104812656Y-143525775D03*
X110187664Y-164472780D03*
X131687696Y-155938815D03*
X110187664Y-170679300D03*
X110187664Y-172230930D03*
X110187664Y-173782560D03*
X110187664Y-175334190D03*
X206265932Y-155938815D03*
X206265932Y-146629035D03*
X110187664Y-176885820D03*
X110187664Y-178437450D03*
X360125536Y-194729565D03*
X351391148Y-137319255D03*
X333250496Y-165248595D03*
X243219112Y-79133130D03*
X264719144Y-79133130D03*
X286219176Y-79133130D03*
X307719208Y-79133130D03*
X329219240Y-79133130D03*
X350719272Y-79133130D03*
X357460348Y-122601086D03*
X333250496Y-179989080D03*
X232469096Y-97752690D03*
X253969128Y-97752690D03*
X275469160Y-97752690D03*
X296969192Y-97752690D03*
X318469224Y-97752690D03*
X339969256Y-97752690D03*
X337281752Y-177661635D03*
X348703644Y-142749960D03*
X243219112Y-116372250D03*
X264719144Y-116372250D03*
X286219176Y-116372250D03*
X307719208Y-116372250D03*
X329219240Y-116372250D03*
X350719272Y-116372250D03*
X337281752Y-176110005D03*
X347359892Y-142749960D03*
X232469096Y-134991810D03*
X253969128Y-134991810D03*
X275469160Y-134991810D03*
X296969192Y-134991810D03*
X318469224Y-134991810D03*
X339969256Y-134991810D03*
X337281752Y-174558375D03*
X316453596Y-159042075D03*
X243219112Y-190850490D03*
X232469096Y-172230930D03*
X243219112Y-153611370D03*
X264719144Y-153611370D03*
X286219176Y-153611370D03*
X307719208Y-153611370D03*
X333250496Y-174558375D03*
X333250496Y-173006745D03*
X333250496Y-171455115D03*
X333250496Y-169903485D03*
X333250496Y-168351855D03*
X333250496Y-166800225D03*
X361469288Y-152059740D03*
X362485414Y-193505561D03*
X361469288Y-154387185D03*
X90650636Y-165248595D03*
X81968872Y-154610873D03*
X81968872Y-152835555D03*
X83312624Y-186971415D03*
X110912664Y-179213265D03*
X110859540Y-171455115D03*
X83312624Y-190074675D03*
X106828284Y-169903485D03*
X219031576Y-133511810D03*
X219031576Y-134251810D03*
X219031576Y-134991810D03*
X219031576Y-135731810D03*
X219031576Y-136471810D03*
X221831576Y-134991810D03*
X224631576Y-133881810D03*
X224631576Y-134621810D03*
X224631576Y-135361810D03*
X224631576Y-136101810D03*
X256831976Y-122578830D03*
X342832104Y-85339710D03*
X90031384Y-190850490D03*
X300167978Y-85339710D03*
X353582120Y-190850550D03*
X186906368Y-85646263D03*
X256831976Y-172230990D03*
X90031384Y-153611370D03*
X257167914Y-85339710D03*
X143906369Y-85646266D03*
X353582120Y-153611430D03*
X92407664Y-173431855D03*
X92407664Y-170891855D03*
X94947664Y-173431855D03*
X94947664Y-170891855D03*
X100662664Y-176606855D03*
X98757664Y-176606855D03*
X110187664Y-168351855D03*
X110187664Y-166446855D03*
X351174388Y-170996925D03*
X351174388Y-173536925D03*
X348634388Y-170996925D03*
X348634388Y-173536925D03*
X342919388Y-167821925D03*
X344824388Y-167821925D03*
X333394388Y-176076925D03*
X333394388Y-177981925D03*
X100906370Y-85646263D03*
X342832104Y-122578830D03*
X80562624Y-153611370D03*
X83312624Y-153611370D03*
X81053244Y-189121415D03*
X81053244Y-192121415D03*
X224581576Y-173710930D03*
X224581576Y-172970930D03*
X224581576Y-172230930D03*
X224581576Y-171490930D03*
X224581576Y-170750930D03*
X221781576Y-172230930D03*
X218981576Y-173340930D03*
X218981576Y-172600930D03*
X218981576Y-171860930D03*
X218981576Y-171120930D03*
X362384916Y-192121415D03*
X362384916Y-189121415D03*
X186781528Y-172230930D03*
X363022413Y-153313815D03*
X360272413Y-153313815D03*
X143906367Y-123273338D03*
X186906367Y-123273339D03*
X300167978Y-122578830D03*
X224581576Y-99232690D03*
X224581576Y-98492690D03*
X224581576Y-97752690D03*
X224581576Y-97012690D03*
X224581576Y-96272690D03*
X221781576Y-97752690D03*
X218981576Y-98862690D03*
X218981576Y-98122690D03*
X218981576Y-97382690D03*
X218981576Y-96642690D03*
X100906369Y-123273339D03*
X181406367Y-134991777D03*
X186906367Y-129091777D03*
X186906367Y-134991777D03*
X191906367Y-131291777D03*
X192406367Y-134991777D03*
X337456608Y-134991814D03*
X342956608Y-129091814D03*
X342956608Y-134991814D03*
X347956608Y-131291814D03*
X348456608Y-134991814D03*
X202906370Y-172230875D03*
X208406370Y-166330875D03*
X208406370Y-172230875D03*
X213406370Y-168530875D03*
X213906370Y-172230875D03*
X229956608Y-97752718D03*
X235456608Y-91852718D03*
X235456608Y-97752718D03*
X240456608Y-94052718D03*
X240956608Y-97752718D03*
X272956608Y-97752718D03*
X278456608Y-91852718D03*
X278456608Y-97752718D03*
X283456608Y-94052718D03*
X283956608Y-97752718D03*
X348206608Y-79133170D03*
X353706608Y-73233170D03*
X353706608Y-79133170D03*
X358706608Y-75433170D03*
X359206608Y-79133170D03*
X251456608Y-97752718D03*
X256956608Y-91852718D03*
X256956608Y-97752718D03*
X261956608Y-94052718D03*
X262456608Y-97752718D03*
X305206608Y-79133170D03*
X310706608Y-73233170D03*
X310706608Y-79133170D03*
X315706608Y-75433170D03*
X316206608Y-79133170D03*
X251456608Y-134991814D03*
X256956608Y-129091814D03*
X256956608Y-134991814D03*
X261956608Y-131291814D03*
X262456608Y-134991814D03*
X326706608Y-116372266D03*
X332206608Y-110472266D03*
X332206608Y-116372266D03*
X337206608Y-112672266D03*
X337706608Y-116372266D03*
X95406369Y-134991777D03*
X100906369Y-129091777D03*
X100906369Y-134991777D03*
X105906369Y-131291777D03*
X106406369Y-134991777D03*
X305206608Y-153611362D03*
X310706608Y-147711362D03*
X310706608Y-153611362D03*
X315706608Y-149911362D03*
X316206608Y-153611362D03*
X191906370Y-79133172D03*
X197406370Y-73233172D03*
X197406370Y-79133172D03*
X202406370Y-75433172D03*
X202906370Y-79133172D03*
X149156370Y-79133172D03*
X154656370Y-73233172D03*
X154656370Y-79133172D03*
X159656370Y-75433172D03*
X160156370Y-79133172D03*
X170656371Y-116372174D03*
X176156371Y-110472174D03*
X176156371Y-116372174D03*
X181156371Y-112672174D03*
X181656371Y-116372174D03*
X202906371Y-134991776D03*
X208406371Y-129091776D03*
X208406371Y-134991776D03*
X213406371Y-131291776D03*
X213906371Y-134991776D03*
X240706608Y-79133170D03*
X246206608Y-73233170D03*
X246206608Y-79133170D03*
X251206608Y-75433170D03*
X251706608Y-79133170D03*
X315956608Y-134991814D03*
X321456608Y-129091814D03*
X321456608Y-134991814D03*
X326456608Y-131291814D03*
X326956608Y-134991814D03*
X305206608Y-116372266D03*
X310706608Y-110472266D03*
X310706608Y-116372266D03*
X315706608Y-112672266D03*
X316206608Y-116372266D03*
X326581608Y-79133170D03*
X332081608Y-73233170D03*
X332081608Y-79133170D03*
X337081608Y-75433170D03*
X337581608Y-79133170D03*
X106156375Y-116372174D03*
X111656375Y-110472174D03*
X111656375Y-116372174D03*
X116656375Y-112672174D03*
X117156375Y-116372174D03*
X148906375Y-116372174D03*
X154406375Y-110472174D03*
X154406375Y-116372174D03*
X159406375Y-112672174D03*
X159906375Y-116372174D03*
X283706608Y-79133170D03*
X289206608Y-73233170D03*
X289206608Y-79133170D03*
X294206608Y-75433170D03*
X294706608Y-79133170D03*
X84406372Y-79133175D03*
X89906372Y-73233175D03*
X89906372Y-79133175D03*
X94906372Y-75433175D03*
X95406372Y-79133175D03*
X159906369Y-134991776D03*
X165406369Y-129091776D03*
X165406369Y-134991776D03*
X170406369Y-131291776D03*
X170906369Y-134991776D03*
X181406372Y-97752672D03*
X186906372Y-91852672D03*
X186906372Y-97752672D03*
X191906372Y-94052672D03*
X192406372Y-97752672D03*
X84656374Y-116372172D03*
X90156374Y-110472172D03*
X90156374Y-116372172D03*
X95156374Y-112672172D03*
X95656374Y-116372172D03*
X127656369Y-153611279D03*
X133156369Y-147711279D03*
X133156369Y-153611279D03*
X138156369Y-149911279D03*
X138656369Y-153611279D03*
X240706608Y-116372266D03*
X246206608Y-110472266D03*
X246206608Y-116372266D03*
X251206608Y-112672266D03*
X251706608Y-116372266D03*
X127406373Y-79133174D03*
X132906373Y-73233174D03*
X132906373Y-79133174D03*
X137906373Y-75433174D03*
X138406373Y-79133174D03*
X272831608Y-134991814D03*
X278331608Y-129091814D03*
X278331608Y-134991814D03*
X283331608Y-131291814D03*
X283831608Y-134991814D03*
X138406369Y-97752676D03*
X143906369Y-91852676D03*
X143906369Y-97752676D03*
X148906369Y-94052676D03*
X149406369Y-97752676D03*
X315956608Y-97752718D03*
X321456608Y-91852718D03*
X321456608Y-97752718D03*
X326456608Y-94052718D03*
X326956608Y-97752718D03*
X294206608Y-134991814D03*
X299706608Y-129091814D03*
X299706608Y-134991814D03*
X304706608Y-131291814D03*
X305206608Y-134991814D03*
X116906367Y-134991772D03*
X122406367Y-129091772D03*
X122406367Y-134991772D03*
X127406367Y-131291772D03*
X127906367Y-134991772D03*
X149156369Y-153611278D03*
X154656369Y-147711278D03*
X154656369Y-153611278D03*
X159656369Y-149911278D03*
X160156369Y-153611278D03*
X170656370Y-79133175D03*
X176156370Y-73233175D03*
X176156370Y-79133175D03*
X181156370Y-75433175D03*
X181656370Y-79133175D03*
X202906368Y-97752675D03*
X208406368Y-91852675D03*
X208406368Y-97752675D03*
X213406368Y-94052675D03*
X213906368Y-97752675D03*
X283706608Y-116372266D03*
X289206608Y-110472266D03*
X289206608Y-116372266D03*
X294206608Y-112672266D03*
X294706608Y-116372266D03*
X294456608Y-97752718D03*
X299956608Y-91852718D03*
X299956608Y-97752718D03*
X304956608Y-94052718D03*
X305456608Y-97752718D03*
X240706608Y-153611362D03*
X246206608Y-147711362D03*
X246206608Y-153611362D03*
X251206608Y-149911362D03*
X251706608Y-153611362D03*
X283706608Y-153611362D03*
X289206608Y-147711362D03*
X289206608Y-153611362D03*
X294206608Y-149911362D03*
X294706608Y-153611362D03*
X229706608Y-172230910D03*
X235206608Y-166330910D03*
X235206608Y-172230910D03*
X240206608Y-168530910D03*
X240706608Y-172230910D03*
X337456608Y-97752718D03*
X342956608Y-91852718D03*
X342956608Y-97752718D03*
X347956608Y-94052718D03*
X348456608Y-97752718D03*
X192156371Y-116372170D03*
X197656371Y-110472170D03*
X197656371Y-116372170D03*
X202656371Y-112672170D03*
X203156371Y-116372170D03*
X348206608Y-116372266D03*
X353706608Y-110472266D03*
X353706608Y-116372266D03*
X358706608Y-112672266D03*
X359206608Y-116372266D03*
X192156369Y-153611273D03*
X197656369Y-147711273D03*
X197656369Y-153611273D03*
X202656369Y-149911273D03*
X203156369Y-153611273D03*
X127656370Y-116372175D03*
X133156370Y-110472175D03*
X133156370Y-116372175D03*
X138156370Y-112672175D03*
X138656370Y-116372175D03*
X192156368Y-190850373D03*
X197656368Y-184950373D03*
X197656368Y-190850373D03*
X202656368Y-187150373D03*
X203156368Y-190850373D03*
X262206608Y-116372266D03*
X267706608Y-110472266D03*
X267706608Y-116372266D03*
X272706608Y-112672266D03*
X273206608Y-116372266D03*
X138406369Y-134991778D03*
X143906369Y-129091778D03*
X143906369Y-134991778D03*
X148906369Y-131291778D03*
X149406369Y-134991778D03*
X95406371Y-97752675D03*
X100906371Y-91852675D03*
X100906371Y-97752675D03*
X105906371Y-94052675D03*
X106406371Y-97752675D03*
X159906372Y-97752675D03*
X165406372Y-91852675D03*
X165406372Y-97752675D03*
X170406372Y-94052675D03*
X170906372Y-97752675D03*
X262206608Y-79133170D03*
X267706608Y-73233170D03*
X267706608Y-79133170D03*
X272706608Y-75433170D03*
X273206608Y-79133170D03*
X170406369Y-153611279D03*
X175906369Y-147711279D03*
X175906369Y-153611279D03*
X180906369Y-149911279D03*
X181406369Y-153611279D03*
X105906372Y-79133172D03*
X111406372Y-73233172D03*
X111406372Y-79133172D03*
X116406372Y-75433172D03*
X116906372Y-79133172D03*
X240581608Y-190850458D03*
X246081608Y-184950458D03*
X246081608Y-190850458D03*
X251081608Y-187150458D03*
X251581608Y-190850458D03*
X262206608Y-153611362D03*
X267706608Y-147711362D03*
X267706608Y-153611362D03*
X272706608Y-149911362D03*
X273206608Y-153611362D03*
X229956608Y-134991814D03*
X235456608Y-129091814D03*
X235456608Y-134991814D03*
X240456608Y-131291814D03*
X240956608Y-134991814D03*
X116656371Y-97752670D03*
X122156371Y-91852670D03*
X122156371Y-97752670D03*
X127156371Y-94052670D03*
X127656371Y-97752670D03*
M02*
