M48
; DRILL file {KiCad 7.0.9} date Mon Dec 25 02:24:28 2023
; FORMAT={-:-/ absolute / metric / decimal}
; #@! TF.CreationDate,2023-12-25T02:24:28+05:30
; #@! TF.GenerationSoftware,Kicad,Pcbnew,7.0.9
; #@! TF.FileFunction,MixedPlating,1,2
FMAT,2
METRIC
; #@! TA.AperFunction,Plated,PTH,ViaDrill
T1C0.400
; #@! TA.AperFunction,Plated,PTH,ComponentDrill
T2C1.016
; #@! TA.AperFunction,Plated,PTH,ComponentDrill
T3C2.700
; #@! TA.AperFunction,NonPlated,NPTH,ComponentDrill
T4C0.500
; #@! TA.AperFunction,NonPlated,NPTH,ComponentDrill
T5C0.750
; #@! TA.AperFunction,NonPlated,NPTH,ComponentDrill
T6C0.900
; #@! TA.AperFunction,NonPlated,NPTH,ComponentDrill
T7C1.900
; #@! TA.AperFunction,NonPlated,NPTH,ComponentDrill
T8C2.400
; #@! TA.AperFunction,NonPlated,NPTH,ComponentDrill
T9C3.000
; #@! TA.AperFunction,NonPlated,NPTH,ComponentDrill
T10C3.500
%
G90
G05
T1
X81.969Y-152.836
X81.969Y-154.611
X83.313Y-186.971
X83.313Y-190.075
X86.672Y-79.133
X87.344Y-116.372
X90.651Y-165.249
X91.375Y-178.437
X92.719Y-138.871
X98.094Y-97.753
X98.094Y-134.992
X98.094Y-143.526
X100.781Y-143.526
X100.781Y-166.8
X103.469Y-166.8
X104.813Y-143.526
X106.156Y-166.8
X106.828Y-169.903
X108.172Y-79.133
X108.844Y-116.372
X110.188Y-164.473
X110.188Y-170.679
X110.188Y-172.231
X110.188Y-173.783
X110.188Y-175.334
X110.188Y-176.886
X110.188Y-178.437
X110.86Y-171.455
X110.913Y-179.213
X118.922Y-97.753
X119.594Y-134.992
X129.672Y-79.133
X130.344Y-116.372
X130.344Y-153.611
X131.688Y-155.939
X141.094Y-97.753
X141.094Y-134.992
X151.172Y-116.372
X151.844Y-79.133
X151.844Y-153.611
X162.594Y-97.753
X162.594Y-134.992
X172.672Y-153.611
X173.344Y-79.133
X173.344Y-116.372
X184.094Y-97.753
X184.094Y-134.992
X194.172Y-79.133
X194.844Y-116.372
X194.844Y-153.611
X194.844Y-190.85
X205.594Y-97.753
X205.594Y-134.992
X205.594Y-172.231
X206.266Y-146.629
X206.266Y-155.939
X232.469Y-97.753
X232.469Y-134.992
X232.469Y-172.231
X243.219Y-79.133
X243.219Y-116.372
X243.219Y-153.611
X243.219Y-190.85
X253.969Y-97.753
X253.969Y-134.992
X264.719Y-79.133
X264.719Y-116.372
X264.719Y-153.611
X275.469Y-97.753
X275.469Y-134.992
X286.219Y-79.133
X286.219Y-116.372
X286.219Y-153.611
X296.969Y-97.753
X296.969Y-134.992
X307.719Y-79.133
X307.719Y-116.372
X307.719Y-153.611
X316.454Y-159.042
X318.469Y-97.753
X318.469Y-134.992
X329.219Y-79.133
X329.219Y-116.372
X333.25Y-165.249
X333.25Y-166.8
X333.25Y-168.352
X333.25Y-169.903
X333.25Y-171.455
X333.25Y-173.007
X333.25Y-174.558
X333.25Y-179.989
X337.282Y-174.558
X337.282Y-176.11
X337.282Y-177.662
X339.969Y-97.753
X339.969Y-134.992
X347.36Y-142.75
X348.704Y-142.75
X350.719Y-79.133
X350.719Y-116.372
X351.391Y-137.319
X357.46Y-122.601
X360.126Y-194.73
X361.469Y-152.06
X361.469Y-154.387
X362.485Y-193.506
T2
X92.408Y-170.892
X92.408Y-173.432
X94.948Y-170.892
X94.948Y-173.432
X98.758Y-176.607
X100.663Y-176.607
X110.188Y-166.447
X110.188Y-168.352
X333.394Y-176.077
X333.394Y-177.982
X342.919Y-167.822
X344.824Y-167.822
X348.634Y-170.997
X348.634Y-173.537
X351.174Y-170.997
X351.174Y-173.537
T3
X90.031Y-153.611
X90.031Y-190.85
X100.906Y-123.273
X100.906Y-85.646
X143.906Y-123.273
X143.906Y-85.646
X186.782Y-172.231
X186.906Y-123.273
X186.906Y-85.646
X256.832Y-122.579
X256.832Y-172.231
X257.168Y-85.34
X300.168Y-85.34
X300.168Y-122.579
X342.832Y-85.34
X342.832Y-122.579
X353.582Y-153.611
X353.582Y-190.851
T4
X218.982Y-96.643
X218.982Y-97.383
X218.982Y-98.123
X218.982Y-98.863
X218.982Y-171.121
X218.982Y-171.861
X218.982Y-172.601
X218.982Y-173.341
X219.032Y-133.512
X219.032Y-134.252
X219.032Y-134.992
X219.032Y-135.732
X219.032Y-136.472
X224.582Y-96.273
X224.582Y-97.013
X224.582Y-97.753
X224.582Y-98.493
X224.582Y-99.233
X224.582Y-170.751
X224.582Y-171.491
X224.582Y-172.231
X224.582Y-172.971
X224.582Y-173.711
X224.632Y-133.882
X224.632Y-134.622
X224.632Y-135.362
X224.632Y-136.102
T5
X80.563Y-153.611
X83.313Y-153.611
X360.272Y-153.314
X363.022Y-153.314
T6
X81.053Y-189.121
X81.053Y-192.121
X362.385Y-189.121
X362.385Y-192.121
T7
X84.406Y-79.133
X84.656Y-116.372
X95.406Y-134.992
X95.406Y-97.753
X95.406Y-79.133
X95.656Y-116.372
X105.906Y-79.133
X106.156Y-116.372
X106.406Y-134.992
X106.406Y-97.753
X116.656Y-97.753
X116.906Y-134.992
X116.906Y-79.133
X117.156Y-116.372
X127.406Y-79.133
X127.656Y-153.611
X127.656Y-116.372
X127.656Y-97.753
X127.906Y-134.992
X138.406Y-97.753
X138.406Y-134.992
X138.406Y-79.133
X138.656Y-153.611
X138.656Y-116.372
X148.906Y-116.372
X149.156Y-153.611
X149.156Y-79.133
X149.406Y-97.753
X149.406Y-134.992
X159.906Y-134.992
X159.906Y-97.753
X159.906Y-116.372
X160.156Y-153.611
X160.156Y-79.133
X170.406Y-153.611
X170.656Y-79.133
X170.656Y-116.372
X170.906Y-134.992
X170.906Y-97.753
X181.406Y-134.992
X181.406Y-153.611
X181.406Y-97.753
X181.656Y-79.133
X181.656Y-116.372
X191.906Y-79.133
X192.156Y-190.85
X192.156Y-153.611
X192.156Y-116.372
X192.406Y-134.992
X192.406Y-97.753
X202.906Y-97.753
X202.906Y-79.133
X202.906Y-172.231
X202.906Y-134.992
X203.156Y-190.85
X203.156Y-153.611
X203.156Y-116.372
X213.906Y-97.753
X213.906Y-172.231
X213.906Y-134.992
X229.707Y-172.231
X229.957Y-97.753
X229.957Y-134.992
X240.582Y-190.85
X240.707Y-79.133
X240.707Y-116.372
X240.707Y-153.611
X240.707Y-172.231
X240.957Y-97.753
X240.957Y-134.992
X251.457Y-97.753
X251.457Y-134.992
X251.582Y-190.85
X251.707Y-79.133
X251.707Y-116.372
X251.707Y-153.611
X262.207Y-79.133
X262.207Y-116.372
X262.207Y-153.611
X262.457Y-97.753
X262.457Y-134.992
X272.832Y-134.992
X272.957Y-97.753
X273.207Y-79.133
X273.207Y-116.372
X273.207Y-153.611
X283.707Y-79.133
X283.707Y-116.372
X283.707Y-153.611
X283.832Y-134.992
X283.957Y-97.753
X294.207Y-134.992
X294.457Y-97.753
X294.707Y-79.133
X294.707Y-116.372
X294.707Y-153.611
X305.207Y-79.133
X305.207Y-116.372
X305.207Y-134.992
X305.207Y-153.611
X305.457Y-97.753
X315.957Y-97.753
X315.957Y-134.992
X316.207Y-79.133
X316.207Y-116.372
X316.207Y-153.611
X326.582Y-79.133
X326.707Y-116.372
X326.957Y-97.753
X326.957Y-134.992
X337.457Y-97.753
X337.457Y-134.992
X337.582Y-79.133
X337.707Y-116.372
X348.207Y-79.133
X348.207Y-116.372
X348.457Y-97.753
X348.457Y-134.992
X359.207Y-79.133
X359.207Y-116.372
T8
X221.782Y-97.753
X221.782Y-172.231
X221.832Y-134.992
T9
X89.906Y-73.233
X90.156Y-110.472
X94.906Y-75.433
X95.156Y-112.672
X100.906Y-129.092
X100.906Y-91.853
X105.906Y-131.292
X105.906Y-94.053
X111.406Y-73.233
X111.656Y-110.472
X116.406Y-75.433
X116.656Y-112.672
X122.156Y-91.853
X122.406Y-129.092
X127.156Y-94.053
X127.406Y-131.292
X132.906Y-73.233
X133.156Y-147.711
X133.156Y-110.472
X137.906Y-75.433
X138.156Y-149.911
X138.156Y-112.672
X143.906Y-91.853
X143.906Y-129.092
X148.906Y-94.053
X148.906Y-131.292
X154.406Y-110.472
X154.656Y-147.711
X154.656Y-73.233
X159.406Y-112.672
X159.656Y-149.911
X159.656Y-75.433
X165.406Y-129.092
X165.406Y-91.853
X170.406Y-131.292
X170.406Y-94.053
X175.906Y-147.711
X176.156Y-73.233
X176.156Y-110.472
X180.906Y-149.911
X181.156Y-75.433
X181.156Y-112.672
X186.906Y-129.092
X186.906Y-91.853
X191.906Y-131.292
X191.906Y-94.053
X197.406Y-73.233
X197.656Y-184.95
X197.656Y-147.711
X197.656Y-110.472
X202.406Y-75.433
X202.656Y-187.15
X202.656Y-149.911
X202.656Y-112.672
X208.406Y-91.853
X208.406Y-166.331
X208.406Y-129.092
X213.406Y-94.053
X213.406Y-168.531
X213.406Y-131.292
X235.207Y-166.331
X235.457Y-91.853
X235.457Y-129.092
X240.207Y-168.531
X240.457Y-94.053
X240.457Y-131.292
X246.082Y-184.95
X246.207Y-73.233
X246.207Y-110.472
X246.207Y-147.711
X251.082Y-187.15
X251.207Y-75.433
X251.207Y-112.672
X251.207Y-149.911
X256.957Y-91.853
X256.957Y-129.092
X261.957Y-94.053
X261.957Y-131.292
X267.707Y-73.233
X267.707Y-110.472
X267.707Y-147.711
X272.707Y-75.433
X272.707Y-112.672
X272.707Y-149.911
X278.332Y-129.092
X278.457Y-91.853
X283.332Y-131.292
X283.457Y-94.053
X289.207Y-73.233
X289.207Y-110.472
X289.207Y-147.711
X294.207Y-75.433
X294.207Y-112.672
X294.207Y-149.911
X299.707Y-129.092
X299.957Y-91.853
X304.707Y-131.292
X304.957Y-94.053
X310.707Y-73.233
X310.707Y-110.472
X310.707Y-147.711
X315.707Y-75.433
X315.707Y-112.672
X315.707Y-149.911
X321.457Y-91.853
X321.457Y-129.092
X326.457Y-94.053
X326.457Y-131.292
X332.082Y-73.233
X332.207Y-110.472
X337.082Y-75.433
X337.207Y-112.672
X342.957Y-91.853
X342.957Y-129.092
X347.957Y-94.053
X347.957Y-131.292
X353.707Y-73.233
X353.707Y-110.472
X358.707Y-75.433
X358.707Y-112.672
T10
X89.906Y-79.133
X90.156Y-116.372
X100.906Y-134.992
X100.906Y-97.753
X111.406Y-79.133
X111.656Y-116.372
X122.156Y-97.753
X122.406Y-134.992
X132.906Y-79.133
X133.156Y-153.611
X133.156Y-116.372
X143.906Y-97.753
X143.906Y-134.992
X154.406Y-116.372
X154.656Y-153.611
X154.656Y-79.133
X165.406Y-134.992
X165.406Y-97.753
X175.906Y-153.611
X176.156Y-79.133
X176.156Y-116.372
X186.906Y-134.992
X186.906Y-97.753
X197.406Y-79.133
X197.656Y-190.85
X197.656Y-153.611
X197.656Y-116.372
X208.406Y-97.753
X208.406Y-172.231
X208.406Y-134.992
X235.207Y-172.231
X235.457Y-97.753
X235.457Y-134.992
X246.082Y-190.85
X246.207Y-79.133
X246.207Y-116.372
X246.207Y-153.611
X256.957Y-97.753
X256.957Y-134.992
X267.707Y-79.133
X267.707Y-116.372
X267.707Y-153.611
X278.332Y-134.992
X278.457Y-97.753
X289.207Y-79.133
X289.207Y-116.372
X289.207Y-153.611
X299.707Y-134.992
X299.957Y-97.753
X310.707Y-79.133
X310.707Y-116.372
X310.707Y-153.611
X321.457Y-97.753
X321.457Y-134.992
X332.082Y-79.133
X332.207Y-116.372
X342.957Y-97.753
X342.957Y-134.992
X353.707Y-79.133
X353.707Y-116.372
T0
M30
