M48
; DRILL file {KiCad 7.0.9} date Mon Dec 25 02:24:28 2023
; FORMAT={-:-/ absolute / metric / decimal}
; #@! TF.CreationDate,2023-12-25T02:24:28+05:30
; #@! TF.GenerationSoftware,Kicad,Pcbnew,7.0.9
; #@! TF.FileFunction,Plated,1,2,PTH
FMAT,2
METRIC
; #@! TA.AperFunction,Plated,PTH,ViaDrill
T1C0.400
; #@! TA.AperFunction,Plated,PTH,ComponentDrill
T2C1.016
; #@! TA.AperFunction,Plated,PTH,ComponentDrill
T3C2.700
%
G90
G05
T1
X81.969Y-152.836
X81.969Y-154.611
X83.313Y-186.971
X83.313Y-190.075
X86.672Y-79.133
X87.344Y-116.372
X90.651Y-165.249
X91.375Y-178.437
X92.719Y-138.871
X98.094Y-97.753
X98.094Y-134.992
X98.094Y-143.526
X100.781Y-143.526
X100.781Y-166.8
X103.469Y-166.8
X104.813Y-143.526
X106.156Y-166.8
X106.828Y-169.903
X108.172Y-79.133
X108.844Y-116.372
X110.188Y-164.473
X110.188Y-170.679
X110.188Y-172.231
X110.188Y-173.783
X110.188Y-175.334
X110.188Y-176.886
X110.188Y-178.437
X110.86Y-171.455
X110.913Y-179.213
X118.922Y-97.753
X119.594Y-134.992
X129.672Y-79.133
X130.344Y-116.372
X130.344Y-153.611
X131.688Y-155.939
X141.094Y-97.753
X141.094Y-134.992
X151.172Y-116.372
X151.844Y-79.133
X151.844Y-153.611
X162.594Y-97.753
X162.594Y-134.992
X172.672Y-153.611
X173.344Y-79.133
X173.344Y-116.372
X184.094Y-97.753
X184.094Y-134.992
X194.172Y-79.133
X194.844Y-116.372
X194.844Y-153.611
X194.844Y-190.85
X205.594Y-97.753
X205.594Y-134.992
X205.594Y-172.231
X206.266Y-146.629
X206.266Y-155.939
X232.469Y-97.753
X232.469Y-134.992
X232.469Y-172.231
X243.219Y-79.133
X243.219Y-116.372
X243.219Y-153.611
X243.219Y-190.85
X253.969Y-97.753
X253.969Y-134.992
X264.719Y-79.133
X264.719Y-116.372
X264.719Y-153.611
X275.469Y-97.753
X275.469Y-134.992
X286.219Y-79.133
X286.219Y-116.372
X286.219Y-153.611
X296.969Y-97.753
X296.969Y-134.992
X307.719Y-79.133
X307.719Y-116.372
X307.719Y-153.611
X316.454Y-159.042
X318.469Y-97.753
X318.469Y-134.992
X329.219Y-79.133
X329.219Y-116.372
X333.25Y-165.249
X333.25Y-166.8
X333.25Y-168.352
X333.25Y-169.903
X333.25Y-171.455
X333.25Y-173.007
X333.25Y-174.558
X333.25Y-179.989
X337.282Y-174.558
X337.282Y-176.11
X337.282Y-177.662
X339.969Y-97.753
X339.969Y-134.992
X347.36Y-142.75
X348.704Y-142.75
X350.719Y-79.133
X350.719Y-116.372
X351.391Y-137.319
X357.46Y-122.601
X360.126Y-194.73
X361.469Y-152.06
X361.469Y-154.387
X362.485Y-193.506
T2
X92.408Y-170.892
X92.408Y-173.432
X94.948Y-170.892
X94.948Y-173.432
X98.758Y-176.607
X100.663Y-176.607
X110.188Y-166.447
X110.188Y-168.352
X333.394Y-176.077
X333.394Y-177.982
X342.919Y-167.822
X344.824Y-167.822
X348.634Y-170.997
X348.634Y-173.537
X351.174Y-170.997
X351.174Y-173.537
T3
X90.031Y-153.611
X90.031Y-190.85
X100.906Y-123.273
X100.906Y-85.646
X143.906Y-123.273
X143.906Y-85.646
X186.782Y-172.231
X186.906Y-123.273
X186.906Y-85.646
X256.832Y-122.579
X256.832Y-172.231
X257.168Y-85.34
X300.168Y-85.34
X300.168Y-122.579
X342.832Y-85.34
X342.832Y-122.579
X353.582Y-153.611
X353.582Y-190.851
T0
M30
