M48
METRIC,TZ
T1C0.500
T2C0.750
T3C0.900
T4C1.900
T5C2.400
T6C3.000
T7C3.500
%
G90
G05
T1
X218982Y-96643
X218982Y-97383
X218982Y-98123
X218982Y-98863
X218982Y-171121
X218982Y-171861
X218982Y-172601
X218982Y-173341
X219032Y-133512
X219032Y-134252
X219032Y-134992
X219032Y-135732
X219032Y-136472
X224582Y-96273
X224582Y-97013
X224582Y-97753
X224582Y-98493
X224582Y-99233
X224582Y-170751
X224582Y-171491
X224582Y-172231
X224582Y-172971
X224582Y-173711
X224632Y-133882
X224632Y-134622
X224632Y-135362
X224632Y-136102
T2
X80563Y-153611
X83313Y-153611
X360272Y-153314
X363022Y-153314
T3
X81053Y-189121
X81053Y-192121
X362385Y-189121
X362385Y-192121
T4
X84406Y-79133
X84656Y-116372
X95406Y-134992
X95406Y-97753
X95406Y-79133
X95656Y-116372
X105906Y-79133
X106156Y-116372
X106406Y-134992
X106406Y-97753
X116656Y-97753
X116906Y-134992
X116906Y-79133
X117156Y-116372
X127406Y-79133
X127656Y-153611
X127656Y-116372
X127656Y-97753
X127906Y-134992
X138406Y-97753
X138406Y-134992
X138406Y-79133
X138656Y-153611
X138656Y-116372
X148906Y-116372
X149156Y-153611
X149156Y-79133
X149406Y-97753
X149406Y-134992
X159906Y-134992
X159906Y-97753
X159906Y-116372
X160156Y-153611
X160156Y-79133
X170406Y-153611
X170656Y-79133
X170656Y-116372
X170906Y-134992
X170906Y-97753
X181406Y-134992
X181406Y-153611
X181406Y-97753
X181656Y-79133
X181656Y-116372
X191906Y-79133
X192156Y-190850
X192156Y-153611
X192156Y-116372
X192406Y-134992
X192406Y-97753
X202906Y-97753
X202906Y-79133
X202906Y-172231
X202906Y-134992
X203156Y-190850
X203156Y-153611
X203156Y-116372
X213906Y-97753
X213906Y-172231
X213906Y-134992
X229707Y-172231
X229957Y-97753
X229957Y-134992
X240582Y-190850
X240707Y-79133
X240707Y-116372
X240707Y-153611
X240707Y-172231
X240957Y-97753
X240957Y-134992
X251457Y-97753
X251457Y-134992
X251582Y-190850
X251707Y-79133
X251707Y-116372
X251707Y-153611
X262207Y-79133
X262207Y-116372
X262207Y-153611
X262457Y-97753
X262457Y-134992
X272832Y-134992
X272957Y-97753
X273207Y-79133
X273207Y-116372
X273207Y-153611
X283707Y-79133
X283707Y-116372
X283707Y-153611
X283832Y-134992
X283957Y-97753
X294207Y-134992
X294457Y-97753
X294707Y-79133
X294707Y-116372
X294707Y-153611
X305207Y-79133
X305207Y-116372
X305207Y-134992
X305207Y-153611
X305457Y-97753
X315957Y-97753
X315957Y-134992
X316207Y-79133
X316207Y-116372
X316207Y-153611
X326582Y-79133
X326707Y-116372
X326957Y-97753
X326957Y-134992
X337457Y-97753
X337457Y-134992
X337582Y-79133
X337707Y-116372
X348207Y-79133
X348207Y-116372
X348457Y-97753
X348457Y-134992
X359207Y-79133
X359207Y-116372
T5
X221782Y-97753
X221782Y-172231
X221832Y-134992
T6
X89906Y-73233
X90156Y-110472
X94906Y-75433
X95156Y-112672
X100906Y-129092
X100906Y-91853
X105906Y-131292
X105906Y-94053
X111406Y-73233
X111656Y-110472
X116406Y-75433
X116656Y-112672
X122156Y-91853
X122406Y-129092
X127156Y-94053
X127406Y-131292
X132906Y-73233
X133156Y-147711
X133156Y-110472
X137906Y-75433
X138156Y-149911
X138156Y-112672
X143906Y-91853
X143906Y-129092
X148906Y-94053
X148906Y-131292
X154406Y-110472
X154656Y-147711
X154656Y-73233
X159406Y-112672
X159656Y-149911
X159656Y-75433
X165406Y-129092
X165406Y-91853
X170406Y-131292
X170406Y-94053
X175906Y-147711
X176156Y-73233
X176156Y-110472
X180906Y-149911
X181156Y-75433
X181156Y-112672
X186906Y-129092
X186906Y-91853
X191906Y-131292
X191906Y-94053
X197406Y-73233
X197656Y-184950
X197656Y-147711
X197656Y-110472
X202406Y-75433
X202656Y-187150
X202656Y-149911
X202656Y-112672
X208406Y-91853
X208406Y-166331
X208406Y-129092
X213406Y-94053
X213406Y-168531
X213406Y-131292
X235207Y-166331
X235457Y-91853
X235457Y-129092
X240207Y-168531
X240457Y-94053
X240457Y-131292
X246082Y-184950
X246207Y-73233
X246207Y-110472
X246207Y-147711
X251082Y-187150
X251207Y-75433
X251207Y-112672
X251207Y-149911
X256957Y-91853
X256957Y-129092
X261957Y-94053
X261957Y-131292
X267707Y-73233
X267707Y-110472
X267707Y-147711
X272707Y-75433
X272707Y-112672
X272707Y-149911
X278332Y-129092
X278457Y-91853
X283332Y-131292
X283457Y-94053
X289207Y-73233
X289207Y-110472
X289207Y-147711
X294207Y-75433
X294207Y-112672
X294207Y-149911
X299707Y-129092
X299957Y-91853
X304707Y-131292
X304957Y-94053
X310707Y-73233
X310707Y-110472
X310707Y-147711
X315707Y-75433
X315707Y-112672
X315707Y-149911
X321457Y-91853
X321457Y-129092
X326457Y-94053
X326457Y-131292
X332082Y-73233
X332207Y-110472
X337082Y-75433
X337207Y-112672
X342957Y-91853
X342957Y-129092
X347957Y-94053
X347957Y-131292
X353707Y-73233
X353707Y-110472
X358707Y-75433
X358707Y-112672
T7
X89906Y-79133
X90156Y-116372
X100906Y-134992
X100906Y-97753
X111406Y-79133
X111656Y-116372
X122156Y-97753
X122406Y-134992
X132906Y-79133
X133156Y-153611
X133156Y-116372
X143906Y-97753
X143906Y-134992
X154406Y-116372
X154656Y-153611
X154656Y-79133
X165406Y-134992
X165406Y-97753
X175906Y-153611
X176156Y-79133
X176156Y-116372
X186906Y-134992
X186906Y-97753
X197406Y-79133
X197656Y-190850
X197656Y-153611
X197656Y-116372
X208406Y-97753
X208406Y-172231
X208406Y-134992
X235207Y-172231
X235457Y-97753
X235457Y-134992
X246082Y-190850
X246207Y-79133
X246207Y-116372
X246207Y-153611
X256957Y-97753
X256957Y-134992
X267707Y-79133
X267707Y-116372
X267707Y-153611
X278332Y-134992
X278457Y-97753
X289207Y-79133
X289207Y-116372
X289207Y-153611
X299707Y-134992
X299957Y-97753
X310707Y-79133
X310707Y-116372
X310707Y-153611
X321457Y-97753
X321457Y-134992
X332082Y-79133
X332207Y-116372
X342957Y-97753
X342957Y-134992
X353707Y-79133
X353707Y-116372
T0
M30
