M48
METRIC,TZ
T1C0.400
T2C1.016
T3C2.700
%
G90
G05
T1
X81969Y-152836
X81969Y-154611
X83313Y-186971
X83313Y-190075
X86672Y-79133
X87344Y-116372
X90651Y-165249
X91375Y-178437
X92719Y-138871
X98094Y-97753
X98094Y-134992
X98094Y-143526
X100781Y-143526
X100781Y-166800
X103469Y-166800
X104813Y-143526
X106156Y-166800
X106828Y-169903
X108172Y-79133
X108844Y-116372
X110188Y-164473
X110188Y-170679
X110188Y-172231
X110188Y-173783
X110188Y-175334
X110188Y-176886
X110188Y-178437
X110860Y-171455
X110913Y-179213
X118922Y-97753
X119594Y-134992
X129672Y-79133
X130344Y-116372
X130344Y-153611
X131688Y-155939
X141094Y-97753
X141094Y-134992
X151172Y-116372
X151844Y-79133
X151844Y-153611
X162594Y-97753
X162594Y-134992
X172672Y-153611
X173344Y-79133
X173344Y-116372
X184094Y-97753
X184094Y-134992
X194172Y-79133
X194844Y-116372
X194844Y-153611
X194844Y-190850
X205594Y-97753
X205594Y-134992
X205594Y-172231
X206266Y-146629
X206266Y-155939
X232469Y-97753
X232469Y-134992
X232469Y-172231
X243219Y-79133
X243219Y-116372
X243219Y-153611
X243219Y-190850
X253969Y-97753
X253969Y-134992
X264719Y-79133
X264719Y-116372
X264719Y-153611
X275469Y-97753
X275469Y-134992
X286219Y-79133
X286219Y-116372
X286219Y-153611
X296969Y-97753
X296969Y-134992
X307719Y-79133
X307719Y-116372
X307719Y-153611
X316454Y-159042
X318469Y-97753
X318469Y-134992
X329219Y-79133
X329219Y-116372
X333250Y-165249
X333250Y-166800
X333250Y-168352
X333250Y-169903
X333250Y-171455
X333250Y-173007
X333250Y-174558
X333250Y-179989
X337282Y-174558
X337282Y-176110
X337282Y-177662
X339969Y-97753
X339969Y-134992
X347360Y-142750
X348704Y-142750
X350719Y-79133
X350719Y-116372
X351391Y-137319
X357460Y-122601
X360126Y-194730
X361469Y-152060
X361469Y-154387
X362485Y-193506
T2
X92408Y-170892
X92408Y-173432
X94948Y-170892
X94948Y-173432
X98758Y-176607
X100663Y-176607
X110188Y-166447
X110188Y-168352
X333394Y-176077
X333394Y-177982
X342919Y-167822
X344824Y-167822
X348634Y-170997
X348634Y-173537
X351174Y-170997
X351174Y-173537
T3
X90031Y-153611
X90031Y-190850
X100906Y-123273
X100906Y-85646
X143906Y-123273
X143906Y-85646
X186782Y-172231
X186906Y-123273
X186906Y-85646
X256832Y-122579
X256832Y-172231
X257168Y-85340
X300168Y-85340
X300168Y-122579
X342832Y-85340
X342832Y-122579
X353582Y-153611
X353582Y-190851
T0
M30
